<svg width="16" height="17" viewBox="0 0 16 17" fill="none" xmlns="http://www.w3.org/2000/svg">
<path d="M2.49963 15.4991C2.36703 15.4991 2.23985 15.4465 2.14608 15.3527C2.05231 15.2589 1.99963 15.1318 1.99963 14.9991C1.99963 14.8665 2.05231 14.7394 2.14608 14.6456C2.23985 14.5518 2.36703 14.4991 2.49963 14.4991H3.49963V13.4991C3.49943 12.6501 3.73942 11.8183 4.19188 11.0999C4.64435 10.3815 5.29082 9.80574 6.05663 9.43915C6.34663 9.30015 6.49963 9.06215 6.49963 8.84915V8.14915C6.49963 7.93615 6.34563 7.69815 6.05663 7.55915C5.29082 7.19255 4.64435 6.61679 4.19188 5.89837C3.73942 5.17995 3.49943 4.34818 3.49963 3.49915V2.49915H2.49963C2.36703 2.49915 2.23985 2.44647 2.14608 2.3527C2.05231 2.25893 1.99963 2.13175 1.99963 1.99915C1.99963 1.86654 2.05231 1.73936 2.14608 1.64559C2.23985 1.55182 2.36703 1.49915 2.49963 1.49915H13.4996C13.6322 1.49915 13.7594 1.55182 13.8532 1.64559C13.947 1.73936 13.9996 1.86654 13.9996 1.99915C13.9996 2.13175 13.947 2.25893 13.8532 2.3527C13.7594 2.44647 13.6322 2.49915 13.4996 2.49915H12.4996V3.49915C12.4998 4.34818 12.2598 5.17995 11.8074 5.89837C11.3549 6.61679 10.7084 7.19255 9.94263 7.55915C9.65263 7.69815 9.49963 7.93615 9.49963 8.14915V8.84915C9.49963 9.06215 9.65363 9.30015 9.94263 9.43915C10.7084 9.80574 11.3549 10.3815 11.8074 11.0999C12.2598 11.8183 12.4998 12.6501 12.4996 13.4991V14.4991H13.4996C13.6322 14.4991 13.7594 14.5518 13.8532 14.6456C13.947 14.7394 13.9996 14.8665 13.9996 14.9991C13.9996 15.1318 13.947 15.2589 13.8532 15.3527C13.7594 15.4465 13.6322 15.4991 13.4996 15.4991H2.49963ZM4.49963 2.49915V3.49915C4.49963 4.03615 4.61963 4.54415 4.83663 4.99915H11.1626C11.3786 4.54415 11.4996 4.03615 11.4996 3.49915V2.49915H4.49963ZM7.49963 8.84915C7.49963 9.55015 7.02163 10.0851 6.48863 10.3411C5.89293 10.6263 5.39005 11.0741 5.03808 11.6329C4.68612 12.1917 4.49945 12.8387 4.49963 13.4991C4.49963 13.4991 5.36563 12.2001 7.49963 12.0191V8.84915ZM8.49963 8.84915V12.0191C10.6336 12.2001 11.4996 13.4991 11.4996 13.4991C11.4998 12.8387 11.3131 12.1917 10.9612 11.6329C10.6092 11.0741 10.1063 10.6263 9.51063 10.3411C8.97763 10.0851 8.49963 9.55115 8.49963 8.85015V8.84915Z" fill="#FF5629"/>
</svg>
