<svg width="12" height="16" viewBox="0 0 12 16" fill="none" xmlns="http://www.w3.org/2000/svg">
<path d="M7.293 0H2C1.46957 0 0.960859 0.210714 0.585786 0.585786C0.210714 0.960859 0 1.46957 0 2V14C0 14.5304 0.210714 15.0391 0.585786 15.4142C0.960859 15.7893 1.46957 16 2 16H10C10.5304 16 11.0391 15.7893 11.4142 15.4142C11.7893 15.0391 12 14.5304 12 14V4.707C11.9999 4.4418 11.8945 4.18749 11.707 4L8 0.293C7.81251 0.105451 7.5582 5.66374e-05 7.293 0V0ZM7.5 3.5V1.5L10.5 4.5H8.5C8.23478 4.5 7.98043 4.39464 7.79289 4.20711C7.60536 4.01957 7.5 3.76522 7.5 3.5ZM8.854 7.854L5.854 10.854C5.80755 10.9006 5.75238 10.9375 5.69163 10.9627C5.63089 10.9879 5.56577 11.0009 5.5 11.0009C5.43423 11.0009 5.36911 10.9879 5.30837 10.9627C5.24762 10.9375 5.19245 10.9006 5.146 10.854L3.646 9.354C3.59951 9.30751 3.56264 9.25232 3.53748 9.19158C3.51232 9.13084 3.49937 9.06574 3.49937 9C3.49937 8.93426 3.51232 8.86916 3.53748 8.80842C3.56264 8.74768 3.59951 8.69249 3.646 8.646C3.73989 8.55211 3.86722 8.49937 4 8.49937C4.06574 8.49937 4.13084 8.51232 4.19158 8.53748C4.25232 8.56264 4.30751 8.59951 4.354 8.646L5.5 9.793L8.146 7.146C8.23989 7.05211 8.36722 6.99937 8.5 6.99937C8.63278 6.99937 8.76011 7.05211 8.854 7.146C8.94789 7.23989 9.00063 7.36722 9.00063 7.5C9.00063 7.63278 8.94789 7.76011 8.854 7.854Z" fill="#FF5629"/>
</svg>
