<svg width="20" height="20" viewBox="0 0 20 20" fill="none" xmlns="http://www.w3.org/2000/svg">
<path fill-rule="evenodd" clip-rule="evenodd" d="M4.59824 2.10577C4.50209 1.98476 4.32604 1.9646 4.20503 2.06076L3.43814 2.6701C3.31713 2.76625 3.29697 2.94229 3.39312 3.0633L14.7868 17.4029C14.8829 17.5239 15.059 17.544 15.18 17.4479L15.9469 16.8385C16.0679 16.7424 16.088 16.5663 15.9919 16.4453L4.59824 2.10577ZM13.5679 4.50678C12.8474 4.06392 12.064 3.76499 11.2383 3.62105C10.8072 3.54521 10.374 3.51245 9.94088 3.52202C9.52214 3.53159 9.1034 3.58129 8.68724 3.67038C8.5235 3.70535 8.36178 3.74621 8.20245 3.79297C8.01976 3.84635 7.8402 3.90746 7.66376 3.97593C7.5051 4.03769 7.3491 4.10549 7.19588 4.17926L6.33984 2.96421C8.79987 1.68877 11.8456 1.70893 14.3592 3.2669C14.3768 3.27794 14.3921 3.29193 14.404 3.30887C14.4162 3.32543 14.4247 3.34458 14.4293 3.36482L14.4326 3.38802C14.4337 3.40053 14.4331 3.41342 14.4309 3.42593C14.4293 3.43551 14.4267 3.44471 14.4234 3.45354L14.4173 3.46717L14.4085 3.483L13.7787 4.45856C13.7325 4.52998 13.6389 4.55022 13.5679 4.50678ZM4.49563 6.56688C4.00771 7.32266 3.68317 8.14986 3.5301 9.02566C3.46461 9.39821 3.4313 9.77482 3.43038 10.1514C3.4291 10.63 3.47969 11.1078 3.58198 11.5772C3.6048 11.6829 3.63 11.7882 3.65778 11.8927C3.69973 12.0499 3.74738 12.2056 3.80055 12.3591L5.19604 11.8739C5.22345 11.864 5.25307 11.8625 5.28159 11.8688C5.30992 11.8754 5.33605 11.8898 5.35665 11.91C5.37726 11.9306 5.39161 11.9568 5.39823 11.9851C5.40486 12.0135 5.4032 12.0433 5.39363 12.0705L4.24817 15.3786C4.23125 15.4268 4.19335 15.4607 4.14919 15.475C4.10725 15.4887 4.0596 15.4846 4.01912 15.4585L1.07139 13.5721C0.962663 13.5015 0.981616 13.3365 1.10451 13.296L2.41298 12.8425C1.62131 10.559 1.85129 7.95217 3.26186 5.76728C3.49212 5.41063 3.74563 5.07803 4.01912 4.77018L4.96226 5.92892C4.79545 6.13091 4.63977 6.34371 4.49563 6.56688ZM16.5682 14.1108C17.9203 11.8924 18.083 9.28313 17.236 7.02431L18.5305 6.53739C18.5732 6.52195 18.6025 6.49179 18.6182 6.45612C18.6259 6.43883 18.6301 6.42007 18.631 6.40095C18.6334 6.34799 18.6093 6.29356 18.5564 6.2612L15.565 4.44996C15.5206 4.42311 15.4684 4.42201 15.4245 4.44113C15.3853 4.45805 15.3528 4.49115 15.3385 4.53601L14.2798 7.8687C14.271 7.89628 14.2703 7.92607 14.2774 7.95439C14.2848 7.98234 14.2998 8.00808 14.321 8.02794C14.3272 8.03383 14.3338 8.03898 14.3408 8.04376C14.3577 8.05516 14.3768 8.06325 14.397 8.0673C14.4255 8.07281 14.4551 8.0706 14.4823 8.05994L15.8628 7.53992C15.9122 7.67158 15.9574 7.80471 15.9984 7.93931C16.036 8.06325 16.0704 8.18866 16.1009 8.3148C16.3081 9.1636 16.3456 10.0448 16.2109 10.9079C16.0763 11.7711 15.772 12.5989 15.3161 13.3436C15.1708 13.5831 15.0108 13.8125 14.8372 14.0307L15.8015 15.1688L16.5682 14.1108ZM6.10428 15.6874L5.50063 16.6774C5.4953 16.6862 5.49089 16.6954 5.4874 16.705C5.48391 16.7149 5.48134 16.7249 5.47969 16.7352C5.47822 16.7447 5.47767 16.7543 5.47803 16.7635C5.4784 16.7745 5.48006 16.7855 5.48281 16.7966C5.48796 16.8164 5.49696 16.8352 5.50945 16.8517C5.5179 16.8628 5.528 16.8727 5.53921 16.8812L5.55537 16.8922C8.10103 18.3818 11.1388 18.3261 13.561 16.9927L12.652 15.8124C12.1937 16.0449 11.7087 16.2232 11.2066 16.3439C10.8464 16.431 10.483 16.488 10.1184 16.5149C9.85844 16.5336 9.59777 16.5373 9.33728 16.5252C9.11187 16.5145 8.88647 16.4924 8.66143 16.4586C7.83348 16.3358 7.04392 16.0574 6.31333 15.6337C6.29092 15.6208 6.26649 15.6138 6.24206 15.6127C6.22975 15.6124 6.21744 15.6135 6.20532 15.616C6.1649 15.6245 6.12779 15.6488 6.10428 15.6874Z" fill="black" fill-opacity="0.85"/>
</svg>
