<svg width="20" height="20" viewBox="0 0 20 20" fill="none" xmlns="http://www.w3.org/2000/svg">
<path d="M18.4024 9.49609C16.5509 5.5957 13.752 3.63281 10.0001 3.63281C6.24616 3.63281 3.44929 5.5957 1.59773 9.49805C1.52346 9.65531 1.48494 9.82706 1.48494 10.001C1.48494 10.1749 1.52346 10.3466 1.59773 10.5039C3.44929 14.4043 6.24812 16.3672 10.0001 16.3672C13.754 16.3672 16.5509 14.4043 18.4024 10.502C18.5528 10.1855 18.5528 9.81836 18.4024 9.49609V9.49609ZM10.0001 14.9609C6.84968 14.9609 4.54304 13.3633 2.91608 10C4.54304 6.63672 6.84968 5.03906 10.0001 5.03906C13.1505 5.03906 15.4571 6.63672 17.0841 10C15.4591 13.3633 13.1524 14.9609 10.0001 14.9609ZM9.92194 6.5625C8.02351 6.5625 6.48444 8.10156 6.48444 10C6.48444 11.8984 8.02351 13.4375 9.92194 13.4375C11.8204 13.4375 13.3594 11.8984 13.3594 10C13.3594 8.10156 11.8204 6.5625 9.92194 6.5625ZM9.92194 12.1875C8.71296 12.1875 7.73444 11.209 7.73444 10C7.73444 8.79102 8.71296 7.8125 9.92194 7.8125C11.1309 7.8125 12.1094 8.79102 12.1094 10C12.1094 11.209 11.1309 12.1875 9.92194 12.1875Z" fill="black" fill-opacity="0.85"/>
</svg>
