<svg width="20" height="20" viewBox="0 0 20 20" fill="none" xmlns="http://www.w3.org/2000/svg">
<path d="M8.63297 14.695L6.74761 16.5804C5.96598 17.362 4.7002 17.362 3.91922 16.5806C3.13809 15.7994 3.13809 14.5335 3.91907 13.7525L7.69043 9.98118C8.4714 9.20017 9.73732 9.20017 10.5183 9.98118C10.7786 10.2415 11.2008 10.2415 11.4611 9.98118C11.7215 9.72083 11.7215 9.2987 11.4611 9.03836C10.1594 7.73666 8.04931 7.73666 6.74761 9.03836L2.97628 12.8097C1.67459 14.1114 1.67459 16.2215 2.97628 17.5232C4.27782 18.8256 6.38808 18.8256 7.69046 17.5232L9.57582 15.6378C9.83616 15.3775 9.83616 14.9554 9.57582 14.695C9.31547 14.4347 8.89331 14.4347 8.63297 14.695Z" fill="black" fill-opacity="0.85"/>
<path d="M17.0233 3.47625C15.7216 2.17456 13.6108 2.17456 12.3092 3.47625L10.0471 5.73826C9.7868 5.99861 9.7868 6.42073 10.0471 6.68108C10.3075 6.94142 10.7296 6.94142 10.99 6.68108L13.252 4.41907C14.0329 3.63806 15.2995 3.63806 16.0805 4.41907C16.8615 5.20004 16.8615 6.46595 16.0805 7.24692L11.9325 11.395C11.1515 12.176 9.88561 12.176 9.10464 11.395C8.84429 11.1346 8.42216 11.1346 8.16182 11.395C7.90147 11.6553 7.90147 12.0774 8.16182 12.3378C9.46351 13.6395 11.5736 13.6395 12.8753 12.3378L17.0233 8.18977C18.325 6.88808 18.325 4.77794 17.0233 3.47625Z" fill="black" fill-opacity="0.85"/>
</svg>
