<svg width="20" height="20" viewBox="0 0 20 20" fill="none" xmlns="http://www.w3.org/2000/svg">
<path d="M3.2812 9.84766C3.30073 8.99414 3.47651 8.16602 3.80659 7.38672C4.14448 6.58594 4.62886 5.86914 5.24604 5.25C5.86323 4.63086 6.58198 4.14648 7.38276 3.80859C8.21089 3.45898 9.08979 3.28125 9.998 3.28125C10.9062 3.28125 11.7851 3.45898 12.6113 3.80859C13.4098 4.14579 14.1349 4.63539 14.746 5.25C14.9394 5.44336 15.121 5.64844 15.289 5.86328L14.1132 6.78125C14.09 6.79925 14.0723 6.82344 14.0621 6.85106C14.052 6.87867 14.0499 6.90859 14.056 6.93735C14.0621 6.96612 14.0762 6.99258 14.0967 7.01368C14.1172 7.03478 14.1433 7.04967 14.1718 7.05664L17.6035 7.89648C17.7011 7.91992 17.7968 7.8457 17.7968 7.74609L17.8125 4.21289C17.8125 4.08203 17.6621 4.00781 17.5605 4.08984L16.4589 4.95117C14.957 3.0293 12.621 1.79688 9.99604 1.79688C5.52143 1.79688 1.88081 5.38281 1.79682 9.83984C1.7963 9.86069 1.79996 9.88143 1.80758 9.90084C1.8152 9.92025 1.82662 9.93794 1.84118 9.95286C1.85575 9.96779 1.87315 9.97965 1.89236 9.98774C1.91158 9.99584 1.93222 10 1.95307 10H3.12495C3.21089 10 3.27925 9.93164 3.2812 9.84766ZM18.0468 10H16.875C16.789 10 16.7207 10.0684 16.7187 10.1523C16.6992 11.0059 16.5234 11.834 16.1933 12.6133C15.8554 13.4141 15.371 14.1328 14.7539 14.75C14.1309 15.3755 13.3903 15.8715 12.5747 16.2094C11.7591 16.5473 10.8847 16.7204 10.0019 16.7188C9.11939 16.7204 8.24529 16.5473 7.43003 16.2094C6.61477 15.8715 5.87449 15.3755 5.2519 14.75C5.05854 14.5566 4.8769 14.3516 4.70893 14.1367L5.88472 13.2187C5.90798 13.2008 5.92569 13.1766 5.93581 13.1489C5.94594 13.1213 5.94806 13.0914 5.94194 13.0626C5.93582 13.0339 5.9217 13.0074 5.90121 12.9863C5.88073 12.9652 5.8547 12.9503 5.82612 12.9434L2.39448 12.1035C2.29682 12.0801 2.20112 12.1543 2.20112 12.2539L2.18745 15.7891C2.18745 15.9199 2.33784 15.9941 2.4394 15.9121L3.54097 15.0508C5.04292 16.9707 7.37886 18.2031 10.0039 18.2031C14.4804 18.2031 18.1191 14.6152 18.2031 10.1602C18.2036 10.1393 18.1999 10.1186 18.1923 10.0992C18.1847 10.0798 18.1733 10.0621 18.1587 10.0471C18.1442 10.0322 18.1268 10.0204 18.1075 10.0123C18.0883 10.0042 18.0677 9.99999 18.0468 10V10Z" fill="black" fill-opacity="0.85"/>
</svg>
