<svg width="20" height="20" viewBox="0 0 20 20" fill="none" xmlns="http://www.w3.org/2000/svg">
<path d="M8.63297 14.695L6.74761 16.5804C5.96598 17.362 4.7002 17.362 3.91922 16.5806C3.13809 15.7994 3.13809 14.5335 3.91907 13.7525L7.69043 9.98118C8.4714 9.20017 9.73732 9.20017 10.5183 9.98118C10.7786 10.2415 11.2008 10.2415 11.4611 9.98118C11.7215 9.72083 11.7215 9.2987 11.4611 9.03836C10.1594 7.73666 8.04931 7.73666 6.74761 9.03836L2.97628 12.8097C1.67459 14.1114 1.67459 16.2215 2.97628 17.5232C4.27782 18.8256 6.38808 18.8256 7.69046 17.5232L9.57582 15.6378C9.83616 15.3775 9.83616 14.9554 9.57582 14.695C9.31547 14.4347 8.89331 14.4347 8.63297 14.695Z" fill="black" fill-opacity="0.85"/>
<path d="M14.7552 1.27295C13.0584 0.558958 11.1038 1.35578 10.3898 3.05255L9.1491 6.0011C9.00629 6.34046 9.16565 6.73136 9.50501 6.87416C9.84437 7.01696 10.2353 6.85761 10.3781 6.51825L11.6188 3.56969C12.0472 2.55166 13.22 2.07353 14.2381 2.50192C15.2561 2.93029 15.734 4.10254 15.3056 5.12055L13.0304 10.5276C12.602 11.5456 11.4297 12.0235 10.4117 11.5951C10.0724 11.4523 9.68147 11.6116 9.53867 11.951C9.39587 12.2903 9.55522 12.6812 9.89458 12.824C11.5914 13.538 13.5453 12.7415 14.2593 11.0447L16.5346 5.63772C17.2486 3.94095 16.452 1.98694 14.7552 1.27295Z" fill="black" fill-opacity="0.85"/>
<path d="M3.95174 4.57655L3.13758 5.52604L5.29979 7.38009L6.11396 6.4306L3.95174 4.57655Z" fill="black" fill-opacity="0.85"/>
<path d="M7.21126 3.26396L5.97639 3.46294L6.42906 6.27225L7.66394 6.07326L7.21126 3.26396Z" fill="black" fill-opacity="0.85"/>
<path d="M13.5905 13.5045L12.7763 14.454L14.9385 16.3081L15.7527 15.3586L13.5905 13.5045Z" fill="black" fill-opacity="0.85"/>
<path d="M12.4604 14.6125L11.2255 14.8115L11.6782 17.6208L12.9131 17.4218L12.4604 14.6125Z" fill="black" fill-opacity="0.85"/>
</svg>
