<svg width="16" height="15" viewBox="0 0 16 15" fill="none" xmlns="http://www.w3.org/2000/svg">
<path d="M7.93795 2.01595C7.95755 2.0052 7.97959 1.99969 8.00195 1.99995C8.02396 1.99986 8.04564 2.00537 8.06495 2.01595C8.08781 2.02966 8.10649 2.04938 8.11895 2.07295L14.9759 13.74C15.0119 13.8 15.0109 13.864 14.9779 13.923C14.9653 13.9472 14.9467 13.9678 14.9239 13.983C14.9041 13.9951 14.8812 14.001 14.8579 14H1.14595C1.12273 14.0011 1.09972 13.9952 1.07995 13.983C1.0572 13.9678 1.03863 13.9472 1.02595 13.923C1.00947 13.8952 1.00094 13.8634 1.00129 13.8312C1.00164 13.7989 1.01086 13.7673 1.02795 13.74L7.88395 2.07295C7.89644 2.04941 7.91511 2.0297 7.93795 2.01595ZM8.98195 1.56595C8.88296 1.39352 8.74022 1.25025 8.56815 1.15062C8.39608 1.051 8.20078 0.998535 8.00195 0.998535C7.80312 0.998535 7.60781 1.051 7.43574 1.15062C7.26367 1.25025 7.12094 1.39352 7.02195 1.56595L0.164946 13.233C-0.292054 14.011 0.255946 15 1.14495 15H14.8579C15.7469 15 16.2959 14.01 15.8379 13.233L8.98195 1.56595Z" fill="#FF0000"/>
<path d="M7.00195 12C7.00195 11.8686 7.02781 11.7386 7.07807 11.6173C7.12832 11.4959 7.20198 11.3857 7.29484 11.2928C7.3877 11.2 7.49794 11.1263 7.61926 11.0761C7.74059 11.0258 7.87062 11 8.00195 11C8.13327 11 8.2633 11.0258 8.38463 11.0761C8.50595 11.1263 8.61619 11.2 8.70905 11.2928C8.80191 11.3857 8.87557 11.4959 8.92583 11.6173C8.97608 11.7386 9.00195 11.8686 9.00195 12C9.00195 12.2652 8.89659 12.5195 8.70905 12.7071C8.52152 12.8946 8.26716 13 8.00195 13C7.73673 13 7.48238 12.8946 7.29484 12.7071C7.1073 12.5195 7.00195 12.2652 7.00195 12ZM7.09995 5.99495C7.08663 5.86879 7.09999 5.74124 7.13915 5.62058C7.17831 5.49992 7.2424 5.38883 7.32726 5.29454C7.41213 5.20024 7.51587 5.12485 7.63176 5.07323C7.74764 5.02162 7.87309 4.99495 7.99995 4.99495C8.12681 4.99495 8.25225 5.02162 8.36813 5.07323C8.48402 5.12485 8.58776 5.20024 8.67263 5.29454C8.75749 5.38883 8.82158 5.49992 8.86075 5.62058C8.89991 5.74124 8.91326 5.86879 8.89995 5.99495L8.54995 9.50195C8.53819 9.63972 8.47515 9.76806 8.3733 9.86159C8.27145 9.95511 8.13822 10.007 7.99995 10.007C7.86167 10.007 7.72844 9.95511 7.62659 9.86159C7.52474 9.76806 7.46171 9.63972 7.44995 9.50195L7.09995 5.99495Z" fill="#FF0000"/>
</svg>
