<svg width="48" height="48" viewBox="0 0 48 48" fill="none" xmlns="http://www.w3.org/2000/svg">
<path d="M23.9999 0C10.7451 0 0 10.7451 0 23.9999C0 37.2548 10.7451 47.9999 23.9999 47.9999C37.2548 47.9999 47.9999 37.2548 47.9999 23.9999C47.9858 10.7511 37.2489 0.0141629 23.9999 0ZM23.9999 44.5714C12.6387 44.5714 3.42854 35.3612 3.42854 23.9999C3.42854 12.6387 12.6387 3.42854 23.9999 3.42854C35.3612 3.42854 44.5714 12.6387 44.5714 23.9999C44.5591 35.3562 35.3562 44.5591 23.9999 44.5714Z" fill="#52C41A"/>
<path d="M37.1702 14.2173C36.5058 13.5756 35.4527 13.5756 34.7884 14.2173L18.8575 30.1481L13.2123 24.5029C12.5546 23.8219 11.4693 23.8031 10.7884 24.4608C10.1073 25.1185 10.0886 26.2039 10.7463 26.8848C10.76 26.899 10.7741 26.9131 10.7884 26.9269L17.6455 33.784C18.3149 34.4533 19.4001 34.4533 20.0695 33.784L37.2124 16.6412C37.8701 15.9602 37.8512 14.875 37.1702 14.2173Z" fill="#52C41A"/>
</svg>
