<svg width="24" height="24" viewBox="0 0 24 24" fill="none" xmlns="http://www.w3.org/2000/svg">
<path d="M21.927 6.25636C21.927 6.00263 21.7737 5.77401 21.539 5.67757L12.7013 2.04693C12.5489 1.98436 12.3781 1.98436 12.2257 2.04693L3.38794 5.67757C3.15326 5.77397 3 6.00263 3 6.25636V17.7436C3 17.9974 3.15322 18.226 3.38794 18.3224L12.2257 21.9531C12.3764 22.015 12.5458 22.0163 12.7005 21.953C12.708 21.9505 12.3734 22.0878 21.539 18.3224C21.7738 18.226 21.927 17.9974 21.927 17.7436V6.25636ZM12.4635 9.26316L9.2071 7.92542L16.2445 4.85546L19.7187 6.28268L12.4635 9.26316ZM4.25143 7.24249L7.06094 8.39666V11.6529C7.06094 11.9984 7.3411 12.2786 7.68665 12.2786C8.03221 12.2786 8.31237 11.9984 8.31237 11.6529V8.91076L11.8378 10.359V20.4408L4.25143 17.3242V7.24249ZM12.4635 3.30215L14.6326 4.19325L7.59522 7.26321L5.20831 6.28264L12.4635 3.30215ZM13.0892 10.359L20.6755 7.24249V17.3242L13.0892 20.4408V10.359Z" fill="black" fill-opacity="0.85"/>
</svg>
