<svg width="24" height="24" viewBox="0 0 24 24" fill="none" xmlns="http://www.w3.org/2000/svg">
<path d="M8.4375 4.6875H8.25C8.35313 4.6875 8.4375 4.60313 8.4375 4.5V4.6875H15.5625V4.5C15.5625 4.60313 15.6469 4.6875 15.75 4.6875H15.5625V6.375H17.25V4.5C17.25 3.67266 16.5773 3 15.75 3H8.25C7.42266 3 6.75 3.67266 6.75 4.5V6.375H8.4375V4.6875ZM20.25 6.375H3.75C3.33516 6.375 3 6.71016 3 7.125V7.875C3 7.97813 3.08437 8.0625 3.1875 8.0625H4.60312L5.18203 20.3203C5.21953 21.1195 5.88047 21.75 6.67969 21.75H17.3203C18.1219 21.75 18.7805 21.1219 18.818 20.3203L19.3969 8.0625H20.8125C20.9156 8.0625 21 7.97813 21 7.875V7.125C21 6.71016 20.6648 6.375 20.25 6.375ZM17.1398 20.0625H6.86016L6.29297 8.0625H17.707L17.1398 20.0625Z" fill="black" fill-opacity="0.85"/>
</svg>
