<svg width="24" height="24" viewBox="0 0 24 24" fill="none" xmlns="http://www.w3.org/2000/svg">
<path d="M6.41484 18C6.46172 18 6.50859 17.9953 6.55547 17.9883L10.4977 17.2969C10.5445 17.2875 10.5891 17.2664 10.6219 17.2313L20.557 7.29609C20.5788 7.27441 20.596 7.24866 20.6078 7.2203C20.6195 7.19195 20.6256 7.16156 20.6256 7.13086C20.6256 7.10016 20.6195 7.06977 20.6078 7.04142C20.596 7.01306 20.5788 6.98731 20.557 6.96563L16.6617 3.06797C16.6172 3.02344 16.5586 3 16.4953 3C16.432 3 16.3734 3.02344 16.3289 3.06797L6.39375 13.0031C6.35859 13.0383 6.3375 13.0805 6.32812 13.1273L5.63672 17.0695C5.61392 17.1951 5.62207 17.3243 5.66045 17.446C5.69884 17.5677 5.76632 17.6782 5.85703 17.768C6.01172 17.918 6.20625 18 6.41484 18V18ZM7.99453 13.9125L16.4953 5.41406L18.2133 7.13203L9.7125 15.6305L7.62891 15.9984L7.99453 13.9125V13.9125ZM21 19.9688H3.75C3.33516 19.9688 3 20.3039 3 20.7188V21.5625C3 21.6656 3.08437 21.75 3.1875 21.75H21.5625C21.6656 21.75 21.75 21.6656 21.75 21.5625V20.7188C21.75 20.3039 21.4148 19.9688 21 19.9688Z" fill="black" fill-opacity="0.85"/>
</svg>
