<?xml version="1.0" encoding="UTF-8"?>
<svg width="20px" height="19px" viewBox="0 0 20 19" version="1.1" xmlns="http://www.w3.org/2000/svg" xmlns:xlink="http://www.w3.org/1999/xlink">
    <!-- Generator: Sketch 46.2 (44496) - http://www.bohemiancoding.com/sketch -->
    <title>ic_inventory</title>
    <desc>Created with Sketch.</desc>
    <defs></defs>
    <g id="Page-1" stroke="none" stroke-width="1" fill="none" fill-rule="evenodd" fill-opacity="0.85">
        <g id="ic_inventory" fill-rule="nonzero" fill="#000000">
            <path d="M2,1.6 C1.7790861,1.6 1.6,1.7790861 1.6,2 L1.6,7 C1.6,7.2209139 1.7790861,7.4 2,7.4 L18,7.4 C18.2209139,7.4 18.4,7.2209139 18.4,7 L18.4,2 C18.4,1.7790861 18.2209139,1.6 18,1.6 L2,1.6 Z M2,0.4 L18,0.4 C18.8836556,0.4 19.6,1.1163444 19.6,2 L19.6,7 C19.6,7.8836556 18.8836556,8.6 18,8.6 L2,8.6 C1.1163444,8.6 0.4,7.8836556 0.4,7 L0.4,2 C0.4,1.1163444 1.1163444,0.4 2,0.4 Z" id="Rectangle-path"></path>
            <path d="M5.5,3.93333 L14.5,3.93333 C14.8313708,3.93333 15.1,3.66470085 15.1,3.33333 C15.1,3.00195915 14.8313708,2.73333 14.5,2.73333 L5.5,2.73333 C5.16862915,2.73333 4.9,3.00195915 4.9,3.33333 C4.9,3.66470085 5.16862915,3.93333 5.5,3.93333 Z" id="Shape"></path>
            <path d="M2,11.1 C1.7790861,11.1 1.6,11.2790861 1.6,11.5 L1.6,16.5 C1.6,16.7209139 1.7790861,16.9 2,16.9 L18,16.9 C18.2209139,16.9 18.4,16.7209139 18.4,16.5 L18.4,11.5 C18.4,11.2790861 18.2209139,11.1 18,11.1 L2,11.1 Z M2,9.9 L18,9.9 C18.8836556,9.9 19.6,10.6163444 19.6,11.5 L19.6,16.5 C19.6,17.3836556 18.8836556,18.1 18,18.1 L2,18.1 C1.1163444,18.1 0.4,17.3836556 0.4,16.5 L0.4,11.5 C0.4,10.6163444 1.1163444,9.9 2,9.9 Z" id="Rectangle-path"></path>
            <path d="M5.5,13.4334 L14.5,13.4334 C14.8313708,13.4334 15.1,13.1647708 15.1,12.8334 C15.1,12.5020292 14.8313708,12.2334 14.5,12.2334 L5.5,12.2334 C5.16862915,12.2334 4.9,12.5020292 4.9,12.8334 C4.9,13.1647708 5.16862915,13.4334 5.5,13.4334 Z" id="Shape"></path>
        </g>
    </g>
</svg>