<svg width="24" height="25" viewBox="0 0 24 25" fill="none" xmlns="http://www.w3.org/2000/svg">
<path d="M21.1875 4.25H2.8125C2.70937 4.25 2.625 4.33437 2.625 4.4375V5.9375C2.625 6.04063 2.70937 6.125 2.8125 6.125H21.1875C21.2906 6.125 21.375 6.04063 21.375 5.9375V4.4375C21.375 4.33437 21.2906 4.25 21.1875 4.25ZM21.1875 18.875H2.8125C2.70937 18.875 2.625 18.9594 2.625 19.0625V20.5625C2.625 20.6656 2.70937 20.75 2.8125 20.75H21.1875C21.2906 20.75 21.375 20.6656 21.375 20.5625V19.0625C21.375 18.9594 21.2906 18.875 21.1875 18.875ZM21.1875 11.5625H2.8125C2.70937 11.5625 2.625 11.6469 2.625 11.75V13.25C2.625 13.3531 2.70937 13.4375 2.8125 13.4375H21.1875C21.2906 13.4375 21.375 13.3531 21.375 13.25V11.75C21.375 11.6469 21.2906 11.5625 21.1875 11.5625Z" fill="black" fill-opacity="0.85"/>
</svg>
