<svg width="24" height="24" viewBox="0 0 24 24" fill="none" xmlns="http://www.w3.org/2000/svg">
<path d="M3.81461 10.3511V19.3243C3.81461 19.3796 3.85938 19.4243 3.91461 19.4243H20.0464C20.1016 19.4243 20.1464 19.3796 20.1464 19.3243V10.3511" stroke="white" stroke-width="1.2"/>
<path d="M3.82968 4.06583C3.84405 4.02631 3.8816 4 3.92365 4H20.1153C20.1574 4 20.1949 4.02631 20.2093 4.06583L21.994 8.9737C21.998 8.98465 22 8.99672 21.9999 9.00838C21.9833 11.2158 18.9398 11.2519 17.5428 9.11687C17.5039 9.05744 17.4162 9.0516 17.3712 9.10656C17.0434 9.50711 15.8925 10.8049 14.7415 10.8049C13.5781 10.8049 12.4148 9.47904 12.1014 9.09395C12.0594 9.04224 11.9796 9.04224 11.9376 9.09395C11.6242 9.47904 10.4609 10.8049 9.29747 10.8049C8.14644 10.8049 6.99551 9.50708 6.66772 9.10655C6.62275 9.05159 6.53511 9.05728 6.49591 9.1165C5.08032 11.2553 1.60198 11.2158 2.03744 8.99799C2.03841 8.99304 2.03984 8.98787 2.04156 8.98313L3.82968 4.06583Z" stroke="white" stroke-width="1.2"/>
</svg>
