<svg width="24" height="24" viewBox="0 0 24 24" fill="none" xmlns="http://www.w3.org/2000/svg">
<path d="M6 3L3 6.4V18.3C3 18.7509 3.21071 19.1833 3.58579 19.5021C3.96086 19.8209 4.46957 20 5 20H19C19.5304 20 20.0391 19.8209 20.4142 19.5021C20.7893 19.1833 21 18.7509 21 18.3V6.4L18 3H6Z" stroke="black" stroke-opacity="0.85" stroke-width="1.2" stroke-linecap="round" stroke-linejoin="round"/>
<path d="M3 6.40015H21" stroke="black" stroke-opacity="0.85" stroke-width="1.2" stroke-linecap="round" stroke-linejoin="round"/>
<path d="M15 10C15 10.7956 14.6839 11.5587 14.1213 12.1213C13.5587 12.6839 12.7956 13 12 13C11.2044 13 10.4413 12.6839 9.87868 12.1213C9.31607 11.5587 9 10.7956 9 10" stroke="black" stroke-opacity="0.85" stroke-width="1.2" stroke-linecap="round" stroke-linejoin="round"/>
</svg>
