<svg width="48" height="48" viewBox="0 0 48 48" fill="none" xmlns="http://www.w3.org/2000/svg">
<g clip-path="url(#clip0_1804_188140)">
<rect width="48" height="48" transform="translate(0 0.000976562)" fill="white" fill-opacity="0.01"/>
<path d="M14.9397 12C14.7148 12.0003 14.493 12.0512 14.2904 12.1488C14.0879 12.2464 13.9099 12.3883 13.7697 12.564L4.61965 24H17.9997C18.3975 24 18.779 24.158 19.0603 24.4393C19.3416 24.7206 19.4997 25.1022 19.4997 25.5C19.4997 26.6935 19.9738 27.8381 20.8177 28.682C21.6616 29.5259 22.8062 30 23.9997 30C25.1931 30 26.3377 29.5259 27.1816 28.682C28.0255 27.8381 28.4997 26.6935 28.4997 25.5C28.4997 25.1022 28.6577 24.7206 28.939 24.4393C29.2203 24.158 29.6018 24 29.9997 24H43.3797L34.2297 12.564C34.0894 12.3883 33.9114 12.2464 33.7089 12.1488C33.5063 12.0512 33.2845 12.0003 33.0597 12H14.9397ZM44.8017 27H31.3497C31.0054 28.6954 30.0856 30.2197 28.746 31.3146C27.4065 32.4094 25.7297 33.0075 23.9997 33.0075C22.2696 33.0075 20.5928 32.4094 19.2533 31.3146C17.9137 30.2197 16.9939 28.6954 16.6497 27H3.19765L4.15765 34.686C4.20304 35.0492 4.37969 35.3833 4.65432 35.6254C4.92894 35.8674 5.2826 36.0006 5.64865 36H42.3507C42.7162 35.9999 43.0691 35.8663 43.3431 35.6244C43.6171 35.3824 43.7933 35.0487 43.8387 34.686L44.7987 27H44.8017ZM11.4267 10.689C11.8484 10.1617 12.3835 9.73612 12.9921 9.44374C13.6008 9.15136 14.2674 8.9997 14.9427 9H33.0567C33.7319 8.9997 34.3985 9.15136 35.0072 9.44374C35.6158 9.73612 36.1509 10.1617 36.5727 10.689L47.6727 24.564C47.7974 24.7205 47.8895 24.9005 47.9436 25.0932C47.9977 25.2859 48.0127 25.4874 47.9877 25.686L46.8177 35.058C46.6816 36.1467 46.1525 37.1481 45.3299 37.8741C44.5073 38.6 43.4478 39.0004 42.3507 39H5.64865C4.55152 39.0004 3.49202 38.6 2.6694 37.8741C1.84677 37.1481 1.3177 36.1467 1.18165 35.058L0.0116514 25.686C-0.0129373 25.4872 0.00253271 25.2855 0.0571489 25.0928C0.111765 24.9001 0.204421 24.7203 0.329651 24.564L11.4297 10.689H11.4267Z" fill="#0D6EFD"/>
</g>
<defs>
<clipPath id="clip0_1804_188140">
<rect width="48" height="48" fill="white" transform="translate(0 0.000976562)"/>
</clipPath>
</defs>
</svg>
