<svg width="17" height="16" viewBox="0 0 17 16" fill="none" xmlns="http://www.w3.org/2000/svg">
<g clip-path="url(#clip0_1804_195430)">
<rect width="16" height="16" transform="translate(0.5)" fill="white" fill-opacity="0.01"/>
<g clip-path="url(#clip1_1804_195430)">
<path fill-rule="evenodd" clip-rule="evenodd" d="M4.90576 1.34102C5.90524 0.479159 7.18 0.00316195 8.49976 -0.000976562C11.1898 -0.000976562 13.4228 1.99902 13.6658 4.57802C15.2578 4.80302 16.4998 6.13602 16.4998 7.77202C16.4998 9.56802 15.0018 10.999 13.1868 10.999H10.4998C10.3671 10.999 10.24 10.9463 10.1462 10.8526C10.0524 10.7588 9.99976 10.6316 9.99976 10.499C9.99976 10.3664 10.0524 10.2392 10.1462 10.1455C10.24 10.0517 10.3671 9.99902 10.4998 9.99902H13.1878C14.4788 9.99902 15.4998 8.98702 15.4998 7.77202C15.4998 6.55602 14.4798 5.54402 13.1868 5.54402H12.6868V5.04402C12.6878 2.82402 10.8278 0.999023 8.49976 0.999023C7.41963 1.00334 6.3766 1.39346 5.55876 2.09902C4.80176 2.75102 4.40576 3.53702 4.40576 4.15402V4.60202L3.96076 4.65102C2.56376 4.80402 1.49976 5.95102 1.49976 7.31702C1.49976 8.78402 2.72976 9.99902 4.28076 9.99902H6.49976C6.63236 9.99902 6.75954 10.0517 6.85331 10.1455C6.94708 10.2392 6.99976 10.3664 6.99976 10.499C6.99976 10.6316 6.94708 10.7588 6.85331 10.8526C6.75954 10.9463 6.63236 10.999 6.49976 10.999H4.28076C2.20776 10.999 0.499756 9.36502 0.499756 7.31702C0.499756 5.55402 1.76576 4.09402 3.44176 3.72402C3.58476 2.86102 4.13976 2.00102 4.90576 1.34102Z" fill="#FF5629"/>
<path fill-rule="evenodd" clip-rule="evenodd" d="M8.14576 4.14502C8.1922 4.09846 8.24738 4.06152 8.30812 4.03631C8.36887 4.0111 8.43399 3.99813 8.49976 3.99813C8.56552 3.99813 8.63064 4.0111 8.69139 4.03631C8.75213 4.06152 8.80731 4.09846 8.85376 4.14502L11.8538 7.14502C11.9476 7.23891 12.0004 7.36625 12.0004 7.49902C12.0004 7.6318 11.9476 7.75914 11.8538 7.85302C11.7599 7.94691 11.6325 7.99965 11.4998 7.99965C11.367 7.99965 11.2396 7.94691 11.1458 7.85302L8.99976 5.70602V14.499C8.99976 14.6316 8.94708 14.7588 8.85331 14.8526C8.75954 14.9463 8.63236 14.999 8.49976 14.999C8.36715 14.999 8.23997 14.9463 8.1462 14.8526C8.05243 14.7588 7.99976 14.6316 7.99976 14.499V5.70602L5.85376 7.85302C5.75987 7.94691 5.63253 7.99965 5.49976 7.99965C5.36698 7.99965 5.23964 7.94691 5.14576 7.85302C5.05187 7.75914 4.99912 7.6318 4.99912 7.49902C4.99912 7.36625 5.05187 7.23891 5.14576 7.14502L8.14576 4.14502Z" fill="#FF5629"/>
</g>
</g>
<defs>
<clipPath id="clip0_1804_195430">
<rect width="16" height="16" fill="white" transform="translate(0.5)"/>
</clipPath>
<clipPath id="clip1_1804_195430">
<rect width="16" height="16" fill="white" transform="translate(0.5)"/>
</clipPath>
</defs>
</svg>
