<svg width="16" height="16" viewBox="0 0 16 16" fill="none" xmlns="http://www.w3.org/2000/svg">
<g clip-path="url(#clip0_7134_5186)">
<path d="M13.9998 0.999146C14.265 0.999146 14.5193 1.1045 14.7069 1.29204C14.8944 1.47958 14.9998 1.73393 14.9998 1.99915V13.9991C14.9998 14.2644 14.8944 14.5187 14.7069 14.7063C14.5193 14.8938 14.265 14.9991 13.9998 14.9991H1.99976C1.73454 14.9991 1.48019 14.8938 1.29265 14.7063C1.10511 14.5187 0.999756 14.2644 0.999756 13.9991V1.99915C0.999756 1.73393 1.10511 1.47958 1.29265 1.29204C1.48019 1.1045 1.73454 0.999146 1.99976 0.999146H13.9998ZM1.99976 -0.000854492C1.46932 -0.000854492 0.960615 0.209859 0.585542 0.584932C0.21047 0.960005 -0.000244141 1.46871 -0.000244141 1.99915V13.9991C-0.000244141 14.5296 0.21047 15.0383 0.585542 15.4134C0.960615 15.7884 1.46932 15.9991 1.99976 15.9991H13.9998C14.5302 15.9991 15.0389 15.7884 15.414 15.4134C15.789 15.0383 15.9998 14.5296 15.9998 13.9991V1.99915C15.9998 1.46871 15.789 0.960005 15.414 0.584932C15.0389 0.209859 14.5302 -0.000854492 13.9998 -0.000854492H1.99976Z" fill="white"/>
<path d="M7.99976 3.99915C8.13236 3.99915 8.25954 4.05182 8.35331 4.14559C8.44708 4.23936 8.49976 4.36654 8.49976 4.49915V7.49915H11.4998C11.6324 7.49915 11.7595 7.55182 11.8533 7.64559C11.9471 7.73936 11.9998 7.86654 11.9998 7.99915C11.9998 8.13175 11.9471 8.25893 11.8533 8.3527C11.7595 8.44647 11.6324 8.49915 11.4998 8.49915H8.49976V11.4991C8.49976 11.6318 8.44708 11.7589 8.35331 11.8527C8.25954 11.9465 8.13236 11.9991 7.99976 11.9991C7.86715 11.9991 7.73997 11.9465 7.6462 11.8527C7.55243 11.7589 7.49976 11.6318 7.49976 11.4991V8.49915H4.49976C4.36715 8.49915 4.23997 8.44647 4.1462 8.3527C4.05243 8.25893 3.99976 8.13175 3.99976 7.99915C3.99976 7.86654 4.05243 7.73936 4.1462 7.64559C4.23997 7.55182 4.36715 7.49915 4.49976 7.49915H7.49976V4.49915C7.49976 4.36654 7.55243 4.23936 7.6462 4.14559C7.73997 4.05182 7.86715 3.99915 7.99976 3.99915Z" fill="white"/>
</g>
<defs>
<clipPath id="clip0_7134_5186">
<rect width="16" height="16" fill="white"/>
</clipPath>
</defs>
</svg>
