<svg width="15" height="17" viewBox="0 0 15 17" fill="none" xmlns="http://www.w3.org/2000/svg">
<path fill-rule="evenodd" clip-rule="evenodd" d="M6 8.15015V1.15015H7V7.26715L8.743 6.22015C8.82065 6.17362 8.90948 6.14904 9 6.14904C9.09052 6.14904 9.17935 6.17362 9.257 6.22015L11 7.26715V1.15015H12V8.15015C12 8.23861 11.9766 8.3255 11.932 8.40194C11.8875 8.47838 11.8235 8.54164 11.7465 8.58525C11.6696 8.62887 11.5824 8.65129 11.4939 8.65021C11.4055 8.64914 11.3189 8.62462 11.243 8.57915L9 7.23315L6.757 8.58015C6.68104 8.62566 6.59436 8.65019 6.50581 8.65122C6.41727 8.65225 6.33004 8.62974 6.25304 8.58601C6.17605 8.54227 6.11205 8.47887 6.06759 8.40229C6.02313 8.32571 5.9998 8.2387 6 8.15015Z" fill="#FF5629"/>
<path d="M3 0.150146H13C13.5304 0.150146 14.0391 0.36086 14.4142 0.735933C14.7893 1.11101 15 1.61971 15 2.15015V14.1501C15 14.6806 14.7893 15.1893 14.4142 15.5644C14.0391 15.9394 13.5304 16.1501 13 16.1501H3C2.46957 16.1501 1.96086 15.9394 1.58579 15.5644C1.21071 15.1893 1 14.6806 1 14.1501V13.1501H2V14.1501C2 14.4154 2.10536 14.6697 2.29289 14.8573C2.48043 15.0448 2.73478 15.1501 3 15.1501H13C13.2652 15.1501 13.5196 15.0448 13.7071 14.8573C13.8946 14.6697 14 14.4154 14 14.1501V2.15015C14 1.88493 13.8946 1.63058 13.7071 1.44304C13.5196 1.2555 13.2652 1.15015 13 1.15015H3C2.73478 1.15015 2.48043 1.2555 2.29289 1.44304C2.10536 1.63058 2 1.88493 2 2.15015V3.15015H1V2.15015C1 1.61971 1.21071 1.11101 1.58579 0.735933C1.96086 0.36086 2.46957 0.150146 3 0.150146Z" fill="#FF5629"/>
<path d="M1 5.15015V4.65015C1 4.51754 1.05268 4.39036 1.14645 4.29659C1.24021 4.20283 1.36739 4.15015 1.5 4.15015C1.63261 4.15015 1.75979 4.20283 1.85355 4.29659C1.94732 4.39036 2 4.51754 2 4.65015V5.15015H2.5C2.63261 5.15015 2.75979 5.20283 2.85355 5.29659C2.94732 5.39036 3 5.51754 3 5.65015C3 5.78275 2.94732 5.90993 2.85355 6.0037C2.75979 6.09747 2.63261 6.15015 2.5 6.15015H0.5C0.367392 6.15015 0.240215 6.09747 0.146447 6.0037C0.0526784 5.90993 0 5.78275 0 5.65015C0 5.51754 0.0526784 5.39036 0.146447 5.29659C0.240215 5.20283 0.367392 5.15015 0.5 5.15015H1ZM1 8.15015V7.65015C1 7.51754 1.05268 7.39036 1.14645 7.29659C1.24021 7.20283 1.36739 7.15015 1.5 7.15015C1.63261 7.15015 1.75979 7.20283 1.85355 7.29659C1.94732 7.39036 2 7.51754 2 7.65015V8.15015H2.5C2.63261 8.15015 2.75979 8.20282 2.85355 8.29659C2.94732 8.39036 3 8.51754 3 8.65015C3 8.78275 2.94732 8.90993 2.85355 9.0037C2.75979 9.09747 2.63261 9.15015 2.5 9.15015H0.5C0.367392 9.15015 0.240215 9.09747 0.146447 9.0037C0.0526784 8.90993 0 8.78275 0 8.65015C0 8.51754 0.0526784 8.39036 0.146447 8.29659C0.240215 8.20282 0.367392 8.15015 0.5 8.15015H1ZM1 11.1501V10.6501C1 10.5175 1.05268 10.3904 1.14645 10.2966C1.24021 10.2028 1.36739 10.1501 1.5 10.1501C1.63261 10.1501 1.75979 10.2028 1.85355 10.2966C1.94732 10.3904 2 10.5175 2 10.6501V11.1501H2.5C2.63261 11.1501 2.75979 11.2028 2.85355 11.2966C2.94732 11.3904 3 11.5175 3 11.6501C3 11.7828 2.94732 11.9099 2.85355 12.0037C2.75979 12.0975 2.63261 12.1501 2.5 12.1501H0.5C0.367392 12.1501 0.240215 12.0975 0.146447 12.0037C0.0526784 11.9099 0 11.7828 0 11.6501C0 11.5175 0.0526784 11.3904 0.146447 11.2966C0.240215 11.2028 0.367392 11.1501 0.5 11.1501H1Z" fill="#FF5629"/>
</svg>
