<svg width="15" height="17" viewBox="0 0 15 17" fill="none" xmlns="http://www.w3.org/2000/svg">
<path fill-rule="evenodd" clip-rule="evenodd" d="M10.854 6.29615C10.9006 6.34259 10.9375 6.39777 10.9627 6.45851C10.9879 6.51926 11.0009 6.58438 11.0009 6.65015C11.0009 6.71591 10.9879 6.78103 10.9627 6.84178C10.9375 6.90253 10.9006 6.9577 10.854 7.00415L7.854 10.0041C7.80755 10.0507 7.75238 10.0877 7.69163 10.1129C7.63089 10.1381 7.56577 10.151 7.5 10.151C7.43423 10.151 7.36911 10.1381 7.30837 10.1129C7.24762 10.0877 7.19245 10.0507 7.146 10.0041L5.646 8.50415C5.59951 8.45766 5.56264 8.40247 5.53748 8.34173C5.51232 8.28099 5.49937 8.21589 5.49937 8.15015C5.49937 8.0844 5.51232 8.0193 5.53748 7.95856C5.56264 7.89782 5.59951 7.84263 5.646 7.79615C5.69249 7.74966 5.74768 7.71278 5.80842 7.68762C5.86916 7.66246 5.93426 7.64951 6 7.64951C6.06574 7.64951 6.13084 7.66246 6.19158 7.68762C6.25232 7.71278 6.30751 7.74966 6.354 7.79615L7.5 8.94315L10.146 6.29615C10.1924 6.24958 10.2476 6.21264 10.3084 6.18743C10.3691 6.16223 10.4342 6.14925 10.5 6.14925C10.5658 6.14925 10.6309 6.16223 10.6916 6.18743C10.7524 6.21264 10.8076 6.24958 10.854 6.29615Z" fill="#FF5629"/>
<path d="M3 0.150146H13C13.5304 0.150146 14.0391 0.36086 14.4142 0.735933C14.7893 1.11101 15 1.61971 15 2.15015V14.1501C15 14.6806 14.7893 15.1893 14.4142 15.5644C14.0391 15.9394 13.5304 16.1501 13 16.1501H3C2.46957 16.1501 1.96086 15.9394 1.58579 15.5644C1.21071 15.1893 1 14.6806 1 14.1501V13.1501H2V14.1501C2 14.4154 2.10536 14.6697 2.29289 14.8573C2.48043 15.0448 2.73478 15.1501 3 15.1501H13C13.2652 15.1501 13.5196 15.0448 13.7071 14.8573C13.8946 14.6697 14 14.4154 14 14.1501V2.15015C14 1.88493 13.8946 1.63058 13.7071 1.44304C13.5196 1.2555 13.2652 1.15015 13 1.15015H3C2.73478 1.15015 2.48043 1.2555 2.29289 1.44304C2.10536 1.63058 2 1.88493 2 2.15015V3.15015H1V2.15015C1 1.61971 1.21071 1.11101 1.58579 0.735933C1.96086 0.36086 2.46957 0.150146 3 0.150146Z" fill="#FF5629"/>
<path d="M1 5.15015V4.65015C1 4.51754 1.05268 4.39036 1.14645 4.29659C1.24021 4.20283 1.36739 4.15015 1.5 4.15015C1.63261 4.15015 1.75979 4.20283 1.85355 4.29659C1.94732 4.39036 2 4.51754 2 4.65015V5.15015H2.5C2.63261 5.15015 2.75979 5.20283 2.85355 5.29659C2.94732 5.39036 3 5.51754 3 5.65015C3 5.78275 2.94732 5.90993 2.85355 6.0037C2.75979 6.09747 2.63261 6.15015 2.5 6.15015H0.5C0.367392 6.15015 0.240215 6.09747 0.146447 6.0037C0.0526784 5.90993 0 5.78275 0 5.65015C0 5.51754 0.0526784 5.39036 0.146447 5.29659C0.240215 5.20283 0.367392 5.15015 0.5 5.15015H1ZM1 8.15015V7.65015C1 7.51754 1.05268 7.39036 1.14645 7.29659C1.24021 7.20283 1.36739 7.15015 1.5 7.15015C1.63261 7.15015 1.75979 7.20283 1.85355 7.29659C1.94732 7.39036 2 7.51754 2 7.65015V8.15015H2.5C2.63261 8.15015 2.75979 8.20282 2.85355 8.29659C2.94732 8.39036 3 8.51754 3 8.65015C3 8.78275 2.94732 8.90993 2.85355 9.0037C2.75979 9.09747 2.63261 9.15015 2.5 9.15015H0.5C0.367392 9.15015 0.240215 9.09747 0.146447 9.0037C0.0526784 8.90993 0 8.78275 0 8.65015C0 8.51754 0.0526784 8.39036 0.146447 8.29659C0.240215 8.20282 0.367392 8.15015 0.5 8.15015H1ZM1 11.1501V10.6501C1 10.5175 1.05268 10.3904 1.14645 10.2966C1.24021 10.2028 1.36739 10.1501 1.5 10.1501C1.63261 10.1501 1.75979 10.2028 1.85355 10.2966C1.94732 10.3904 2 10.5175 2 10.6501V11.1501H2.5C2.63261 11.1501 2.75979 11.2028 2.85355 11.2966C2.94732 11.3904 3 11.5175 3 11.6501C3 11.7828 2.94732 11.9099 2.85355 12.0037C2.75979 12.0975 2.63261 12.1501 2.5 12.1501H0.5C0.367392 12.1501 0.240215 12.0975 0.146447 12.0037C0.0526784 11.9099 0 11.7828 0 11.6501C0 11.5175 0.0526784 11.3904 0.146447 11.2966C0.240215 11.2028 0.367392 11.1501 0.5 11.1501H1Z" fill="#FF5629"/>
</svg>
