<svg width="15" height="17" viewBox="0 0 15 17" fill="none" xmlns="http://www.w3.org/2000/svg">
<path fill-rule="evenodd" clip-rule="evenodd" d="M8 4.15015C8.13261 4.15015 8.25979 4.20283 8.35355 4.29659C8.44732 4.39036 8.5 4.51754 8.5 4.65015V5.28415L9.049 4.96715C9.10588 4.9338 9.16881 4.91203 9.23414 4.9031C9.29947 4.89416 9.36592 4.89824 9.42967 4.9151C9.49342 4.93195 9.55321 4.96125 9.60559 5.0013C9.65797 5.04136 9.70191 5.09138 9.73488 5.14848C9.76785 5.20559 9.7892 5.26865 9.7977 5.33404C9.8062 5.39943 9.80168 5.46586 9.7844 5.52949C9.76713 5.59313 9.73743 5.65272 9.69703 5.70483C9.65663 5.75695 9.60632 5.80056 9.549 5.83315L9 6.15015L9.549 6.46715C9.60632 6.49974 9.65663 6.54335 9.69703 6.59546C9.73743 6.64757 9.76713 6.70716 9.7844 6.7708C9.80168 6.83444 9.8062 6.90086 9.7977 6.96625C9.7892 7.03164 9.76785 7.0947 9.73488 7.15181C9.70191 7.20892 9.65797 7.25894 9.60559 7.29899C9.55321 7.33904 9.49342 7.36834 9.42967 7.3852C9.36592 7.40205 9.29947 7.40613 9.23414 7.3972C9.16881 7.38826 9.10588 7.3665 9.049 7.33315L8.5 7.01615V7.65015C8.5 7.78275 8.44732 7.90993 8.35355 8.0037C8.25979 8.09747 8.13261 8.15015 8 8.15015C7.86739 8.15015 7.74021 8.09747 7.64645 8.0037C7.55268 7.90993 7.5 7.78275 7.5 7.65015V7.01615L6.951 7.33315C6.89411 7.3665 6.83119 7.38826 6.76586 7.3972C6.70053 7.40613 6.63408 7.40205 6.57033 7.3852C6.50658 7.36834 6.44679 7.33904 6.39441 7.29899C6.34203 7.25894 6.29809 7.20892 6.26512 7.15181C6.23215 7.0947 6.2108 7.03164 6.2023 6.96625C6.1938 6.90086 6.19832 6.83444 6.2156 6.7708C6.23287 6.70716 6.26257 6.64757 6.30297 6.59546C6.34337 6.54335 6.39368 6.49974 6.451 6.46715L7 6.15015L6.451 5.83315C6.3371 5.76637 6.25423 5.65725 6.22048 5.52961C6.18673 5.40196 6.20484 5.26614 6.27086 5.1518C6.33688 5.03746 6.44545 4.95387 6.57287 4.91927C6.70029 4.88468 6.83622 4.90189 6.951 4.96715L7.5 5.28415V4.65015C7.5 4.51754 7.55268 4.39036 7.64645 4.29659C7.74021 4.20283 7.86739 4.15015 8 4.15015ZM5 9.65015C5 9.51754 5.05268 9.39036 5.14645 9.29659C5.24021 9.20282 5.36739 9.15015 5.5 9.15015H10.5C10.6326 9.15015 10.7598 9.20282 10.8536 9.29659C10.9473 9.39036 11 9.51754 11 9.65015C11 9.78275 10.9473 9.90993 10.8536 10.0037C10.7598 10.0975 10.6326 10.1501 10.5 10.1501H5.5C5.36739 10.1501 5.24021 10.0975 5.14645 10.0037C5.05268 9.90993 5 9.78275 5 9.65015ZM5 11.6501C5 11.5175 5.05268 11.3904 5.14645 11.2966C5.24021 11.2028 5.36739 11.1501 5.5 11.1501H10.5C10.6326 11.1501 10.7598 11.2028 10.8536 11.2966C10.9473 11.3904 11 11.5175 11 11.6501C11 11.7828 10.9473 11.9099 10.8536 12.0037C10.7598 12.0975 10.6326 12.1501 10.5 12.1501H5.5C5.36739 12.1501 5.24021 12.0975 5.14645 12.0037C5.05268 11.9099 5 11.7828 5 11.6501Z" fill="#FF5629"/>
<path d="M3 0.150146H13C13.5304 0.150146 14.0391 0.36086 14.4142 0.735933C14.7893 1.11101 15 1.61971 15 2.15015V14.1501C15 14.6806 14.7893 15.1893 14.4142 15.5644C14.0391 15.9394 13.5304 16.1501 13 16.1501H3C2.46957 16.1501 1.96086 15.9394 1.58579 15.5644C1.21071 15.1893 1 14.6806 1 14.1501V13.1501H2V14.1501C2 14.4154 2.10536 14.6697 2.29289 14.8573C2.48043 15.0448 2.73478 15.1501 3 15.1501H13C13.2652 15.1501 13.5196 15.0448 13.7071 14.8573C13.8946 14.6697 14 14.4154 14 14.1501V2.15015C14 1.88493 13.8946 1.63058 13.7071 1.44304C13.5196 1.2555 13.2652 1.15015 13 1.15015H3C2.73478 1.15015 2.48043 1.2555 2.29289 1.44304C2.10536 1.63058 2 1.88493 2 2.15015V3.15015H1V2.15015C1 1.61971 1.21071 1.11101 1.58579 0.735933C1.96086 0.36086 2.46957 0.150146 3 0.150146Z" fill="#FF5629"/>
<path d="M1 5.15015V4.65015C1 4.51754 1.05268 4.39036 1.14645 4.29659C1.24021 4.20283 1.36739 4.15015 1.5 4.15015C1.63261 4.15015 1.75979 4.20283 1.85355 4.29659C1.94732 4.39036 2 4.51754 2 4.65015V5.15015H2.5C2.63261 5.15015 2.75979 5.20283 2.85355 5.29659C2.94732 5.39036 3 5.51754 3 5.65015C3 5.78275 2.94732 5.90993 2.85355 6.0037C2.75979 6.09747 2.63261 6.15015 2.5 6.15015H0.5C0.367392 6.15015 0.240215 6.09747 0.146447 6.0037C0.0526784 5.90993 0 5.78275 0 5.65015C0 5.51754 0.0526784 5.39036 0.146447 5.29659C0.240215 5.20283 0.367392 5.15015 0.5 5.15015H1ZM1 8.15015V7.65015C1 7.51754 1.05268 7.39036 1.14645 7.29659C1.24021 7.20283 1.36739 7.15015 1.5 7.15015C1.63261 7.15015 1.75979 7.20283 1.85355 7.29659C1.94732 7.39036 2 7.51754 2 7.65015V8.15015H2.5C2.63261 8.15015 2.75979 8.20282 2.85355 8.29659C2.94732 8.39036 3 8.51754 3 8.65015C3 8.78275 2.94732 8.90993 2.85355 9.0037C2.75979 9.09747 2.63261 9.15015 2.5 9.15015H0.5C0.367392 9.15015 0.240215 9.09747 0.146447 9.0037C0.0526784 8.90993 0 8.78275 0 8.65015C0 8.51754 0.0526784 8.39036 0.146447 8.29659C0.240215 8.20282 0.367392 8.15015 0.5 8.15015H1ZM1 11.1501V10.6501C1 10.5175 1.05268 10.3904 1.14645 10.2966C1.24021 10.2028 1.36739 10.1501 1.5 10.1501C1.63261 10.1501 1.75979 10.2028 1.85355 10.2966C1.94732 10.3904 2 10.5175 2 10.6501V11.1501H2.5C2.63261 11.1501 2.75979 11.2028 2.85355 11.2966C2.94732 11.3904 3 11.5175 3 11.6501C3 11.7828 2.94732 11.9099 2.85355 12.0037C2.75979 12.0975 2.63261 12.1501 2.5 12.1501H0.5C0.367392 12.1501 0.240215 12.0975 0.146447 12.0037C0.0526784 11.9099 0 11.7828 0 11.6501C0 11.5175 0.0526784 11.3904 0.146447 11.2966C0.240215 11.2028 0.367392 11.1501 0.5 11.1501H1Z" fill="#FF5629"/>
</svg>
