<svg width="16" height="17" viewBox="0 0 16 17" fill="none" xmlns="http://www.w3.org/2000/svg">
<g clip-path="url(#clip0_7059_420)">
<rect width="16" height="16" transform="translate(0 0.5)" fill="white" fill-opacity="0.01"/>
<g clip-path="url(#clip1_7059_420)">
<path d="M6.14612 12.6456C6.05235 12.7393 5.99967 12.8665 5.99967 12.9991C5.99967 13.1317 6.05235 13.2589 6.14612 13.3527C6.23989 13.4464 6.36706 13.4991 6.49967 13.4991H9.49967C9.63228 13.4991 9.75946 13.4464 9.85322 13.3527C9.94699 13.2589 9.99967 13.1317 9.99967 12.9991C9.99967 12.8665 9.94699 12.7393 9.85322 12.6456C9.75946 12.5518 9.63228 12.4991 9.49967 12.4991H6.49967C6.36706 12.4991 6.23989 12.5518 6.14612 12.6456Z" fill="#212529"/>
<path fill-rule="evenodd" clip-rule="evenodd" d="M5.52967 6.38512C4.23467 6.26412 2.99967 7.25912 2.99967 8.56112V9.71812C2.99559 9.93938 3.07028 10.1549 3.21041 10.3262C3.35054 10.4974 3.54699 10.6133 3.76467 10.6531C4.60967 10.7991 6.10467 10.9991 7.99967 10.9991C9.89467 10.9991 11.3897 10.8001 12.2347 10.6531C12.4524 10.6133 12.6488 10.4974 12.7889 10.3262C12.9291 10.1549 13.0038 9.93938 12.9997 9.71812V8.56112C12.9997 7.25912 11.7647 6.26412 10.4697 6.38512C8.82658 6.53848 7.17277 6.53848 5.52967 6.38512ZM7.42499 7.74202C7.46271 7.7302 7.5027 7.7275 7.54167 7.73412C7.5805 7.7407 7.61722 7.75636 7.64884 7.77982C7.68047 7.80328 7.70611 7.83388 7.72367 7.86912L8.56567 9.56912L9.31967 8.78412C9.36344 8.73877 9.42274 8.71163 9.48567 8.70812C10.2587 8.66412 10.9277 8.59313 11.4657 8.51912C11.53 8.51273 11.5944 8.53153 11.6452 8.57158C11.696 8.61162 11.7293 8.6698 11.7381 8.73388C11.7469 8.79796 11.7305 8.86295 11.6924 8.91521C11.6543 8.96747 11.5974 9.00293 11.5337 9.01412C10.8956 9.10124 10.2545 9.16395 9.61167 9.20212L8.67967 10.1721C8.65189 10.201 8.61758 10.2228 8.57963 10.2356C8.54168 10.2484 8.50119 10.252 8.46159 10.2459C8.42199 10.2398 8.38443 10.2243 8.35207 10.2007C8.31972 10.1771 8.29351 10.146 8.27567 10.1101L7.42867 8.40012L6.67467 9.13612C6.64984 9.16045 6.6202 9.17933 6.58766 9.19155C6.55511 9.20378 6.52038 9.20908 6.48567 9.20712C5.69767 9.16313 5.01567 9.09013 4.46567 9.01412C4.40197 9.00293 4.34508 8.96747 4.30696 8.91521C4.26885 8.86295 4.25247 8.79796 4.26128 8.73388C4.27008 8.6698 4.30338 8.61162 4.35417 8.57158C4.40497 8.53153 4.46931 8.51273 4.53367 8.51912C5.1548 8.60378 5.77891 8.66482 6.40467 8.70212L7.32467 7.80212C7.35289 7.77444 7.38727 7.75384 7.42499 7.74202Z" fill="#212529"/>
<path fill-rule="evenodd" clip-rule="evenodd" d="M8.92354 1.88186C8.8393 2.08524 8.69031 2.25513 8.49966 2.3652V3.4992H10.4997C11.6931 3.4992 12.8377 3.97331 13.6816 4.81722C14.5256 5.66113 14.9997 6.80573 14.9997 7.9992V8.4992C15.2649 8.4992 15.5192 8.60456 15.7068 8.7921C15.8943 8.97963 15.9997 9.23398 15.9997 9.4992V11.4992C15.9997 11.7644 15.8943 12.0188 15.7068 12.2063C15.5192 12.3938 15.2649 12.4992 14.9997 12.4992V13.4992C14.9997 14.0296 14.7889 14.5383 14.4139 14.9134C14.0388 15.2885 13.5301 15.4992 12.9997 15.4992H2.99966C2.46923 15.4992 1.96052 15.2885 1.58545 14.9134C1.21038 14.5383 0.999664 14.0296 0.999664 13.4992V12.4992C0.734448 12.4992 0.480094 12.3938 0.292558 12.2063C0.105021 12.0188 -0.000335693 11.7644 -0.000335693 11.4992V9.4992C-0.000335693 9.23398 0.105021 8.97963 0.292558 8.7921C0.480094 8.60456 0.734448 8.4992 0.999664 8.4992V7.9992C0.999664 6.80573 1.47377 5.66113 2.31768 4.81722C3.1616 3.97331 4.30619 3.4992 5.49966 3.4992H7.49966V2.3652C7.30902 2.25513 7.16003 2.08524 7.07578 1.88186C6.99154 1.67848 6.97676 1.45299 7.03374 1.24036C7.09071 1.02772 7.21626 0.839832 7.3909 0.705823C7.56555 0.571813 7.77953 0.499176 7.99966 0.499176C8.2198 0.499176 8.43378 0.571813 8.60843 0.705823C8.78307 0.839832 8.90862 1.02772 8.96559 1.24036C9.02257 1.45299 9.00779 1.67848 8.92354 1.88186ZM13.9997 13.4992V7.9992C13.9997 7.07094 13.6309 6.18071 12.9745 5.52433C12.3182 4.86795 11.4279 4.4992 10.4997 4.4992H5.49966C4.57141 4.4992 3.68117 4.86795 3.02479 5.52433C2.36841 6.18071 1.99966 7.07094 1.99966 7.9992V13.4992C1.99966 13.7644 2.10502 14.0188 2.29256 14.2063C2.48009 14.3938 2.73445 14.4992 2.99966 14.4992H12.9997C13.2649 14.4992 13.5192 14.3938 13.7068 14.2063C13.8943 14.0188 13.9997 13.7644 13.9997 13.4992Z" fill="#212529"/>
</g>
</g>
<defs>
<clipPath id="clip0_7059_420">
<rect width="16" height="16" fill="white" transform="translate(0 0.5)"/>
</clipPath>
<clipPath id="clip1_7059_420">
<rect width="16" height="16" fill="white" transform="translate(0 0.5)"/>
</clipPath>
</defs>
</svg>
