<svg width="16" height="16" viewBox="0 0 16 16" fill="none" xmlns="http://www.w3.org/2000/svg">
<g clip-path="url(#clip0_7059_440)">
<rect width="16" height="16" fill="white" fill-opacity="0.01"/>
<g clip-path="url(#clip1_7059_440)">
<path d="M15.9997 7.99918C15.9997 10.1209 15.1568 12.1557 13.6565 13.656C12.1562 15.1563 10.1214 15.9992 7.99966 15.9992C5.87793 15.9992 3.8431 15.1563 2.34281 13.656C0.842519 12.1557 -0.000335693 10.1209 -0.000335693 7.99918C-0.000335693 5.87745 0.842519 3.84261 2.34281 2.34232C3.8431 0.842033 5.87793 -0.000822067 7.99966 -0.000822067C10.1214 -0.000822067 12.1562 0.842033 13.6565 2.34232C15.1568 3.84261 15.9997 5.87745 15.9997 7.99918ZM12.0297 4.96918C11.9582 4.898 11.8732 4.84195 11.7796 4.80439C11.686 4.76684 11.5858 4.74854 11.485 4.75059C11.3842 4.75264 11.2848 4.77501 11.1928 4.81635C11.1008 4.85768 11.0181 4.91715 10.9497 4.99118L7.47666 9.41618L5.38366 7.32218C5.24149 7.1897 5.05344 7.11758 4.85914 7.121C4.66484 7.12443 4.47946 7.20314 4.34204 7.34056C4.20463 7.47797 4.12592 7.66335 4.12249 7.85766C4.11906 8.05196 4.19118 8.24 4.32366 8.38218L6.96966 11.0292C7.04095 11.1003 7.12583 11.1564 7.21925 11.194C7.31267 11.2317 7.41271 11.2501 7.51341 11.2482C7.61411 11.2464 7.7134 11.2242 7.80536 11.1832C7.89732 11.1421 7.98007 11.0829 8.04866 11.0092L12.0407 6.01918C12.1768 5.87768 12.2519 5.68845 12.2501 5.49214C12.2482 5.29582 12.1694 5.10806 12.0307 4.96918H12.0297Z" fill="#00DB6D"/>
</g>
</g>
<defs>
<clipPath id="clip0_7059_440">
<rect width="16" height="16" fill="white"/>
</clipPath>
<clipPath id="clip1_7059_440">
<rect width="16" height="16" fill="white"/>
</clipPath>
</defs>
</svg>
