<svg width="16" height="17" viewBox="0 0 16 17" fill="none" xmlns="http://www.w3.org/2000/svg">
<g clip-path="url(#clip0_5448_2168)">
<rect width="16" height="16" transform="translate(0 0.5)" fill="white" fill-opacity="0.01"/>
<path d="M2.49964 8.49914C2.49949 7.53361 2.75352 6.58506 3.23618 5.74883C3.71884 4.91261 4.41314 4.21818 5.24927 3.73535C6.0854 3.25252 7.0339 2.99831 7.99943 2.99827C8.96495 2.99824 9.91347 3.25237 10.7496 3.73514C10.8644 3.80039 11.0004 3.8176 11.1278 3.78301C11.2552 3.74842 11.3638 3.66483 11.4298 3.55048C11.4958 3.43614 11.5139 3.30032 11.4802 3.17268C11.4464 3.04503 11.3635 2.93591 11.2496 2.86913C10.0105 2.15372 8.56992 1.86716 7.15133 2.0539C5.73273 2.24063 4.41538 2.89024 3.4036 3.90196C2.39181 4.91368 1.74212 6.23098 1.55529 7.64957C1.36846 9.06816 1.65493 10.5088 2.37027 11.7479C3.08561 12.9871 4.18984 13.9557 5.51172 14.5033C6.8336 15.051 8.29924 15.1472 9.68136 14.777C11.0635 14.4068 12.2848 13.5909 13.156 12.4558C14.0272 11.3208 14.4995 9.92997 14.4996 8.49914C14.4996 8.36653 14.447 8.23935 14.3532 8.14558C14.2594 8.05181 14.1323 7.99914 13.9996 7.99914C13.867 7.99914 13.7399 8.05181 13.6461 8.14558C13.5523 8.23935 13.4996 8.36653 13.4996 8.49914C13.4996 9.95783 12.9202 11.3568 11.8887 12.3882C10.8573 13.4197 9.45833 13.9991 7.99964 13.9991C6.54095 13.9991 5.14201 13.4197 4.11056 12.3882C3.07911 11.3568 2.49964 9.95783 2.49964 8.49914Z" fill="#00DB6D"/>
<path d="M15.3536 3.85314C15.4001 3.80665 15.437 3.75146 15.4622 3.69072C15.4873 3.62998 15.5003 3.56488 15.5003 3.49914C15.5003 3.43339 15.4873 3.36829 15.4622 3.30755C15.437 3.24681 15.4001 3.19162 15.3536 3.14513C15.3072 3.09865 15.252 3.06177 15.1912 3.03661C15.1305 3.01145 15.0654 2.9985 14.9996 2.9985C14.9339 2.9985 14.8688 3.01145 14.8081 3.03661C14.7473 3.06177 14.6921 3.09865 14.6456 3.14513L7.99964 9.79214L5.35364 7.14513C5.30716 7.09865 5.25197 7.06177 5.19123 7.03661C5.13049 7.01145 5.06539 6.9985 4.99964 6.9985C4.9339 6.9985 4.8688 7.01145 4.80806 7.03661C4.74732 7.06177 4.69213 7.09865 4.64564 7.14513C4.59915 7.19162 4.56228 7.24681 4.53712 7.30755C4.51196 7.36829 4.49901 7.43339 4.49901 7.49914C4.49901 7.56488 4.51196 7.62998 4.53712 7.69072C4.56228 7.75146 4.59915 7.80665 4.64564 7.85314L7.64564 10.8531C7.69209 10.8997 7.74726 10.9366 7.80801 10.9618C7.86875 10.9871 7.93388 11 7.99964 11C8.06541 11 8.13053 10.9871 8.19128 10.9618C8.25202 10.9366 8.3072 10.8997 8.35364 10.8531L15.3536 3.85314Z" fill="#00DB6D"/>
</g>
<defs>
<clipPath id="clip0_5448_2168">
<rect width="16" height="16" fill="white" transform="translate(0 0.5)"/>
</clipPath>
</defs>
</svg>
