<svg width="16" height="17" viewBox="0 0 16 17" fill="none" xmlns="http://www.w3.org/2000/svg">
<g clip-path="url(#clip0_5448_2667)">
<rect width="16" height="16" transform="translate(0 0.5)" fill="white" fill-opacity="0.01"/>
<g clip-path="url(#clip1_5448_2667)">
<path d="M15.9996 8.49921C15.9996 10.6209 15.1568 12.6558 13.6565 14.1561C12.1562 15.6564 10.1214 16.4992 7.99963 16.4992C5.8779 16.4992 3.84307 15.6564 2.34278 14.1561C0.842489 12.6558 -0.000366211 10.6209 -0.000366211 8.49921C-0.000366211 6.37747 0.842489 4.34264 2.34278 2.84235C3.84307 1.34206 5.8779 0.499207 7.99963 0.499207C10.1214 0.499207 12.1562 1.34206 13.6565 2.84235C15.1568 4.34264 15.9996 6.37747 15.9996 8.49921ZM4.49963 7.99921C4.36703 7.99921 4.23985 8.05189 4.14608 8.14565C4.05231 8.23942 3.99963 8.3666 3.99963 8.49921C3.99963 8.63181 4.05231 8.75899 4.14608 8.85276C4.23985 8.94653 4.36703 8.99921 4.49963 8.99921H11.4996C11.6322 8.99921 11.7594 8.94653 11.8532 8.85276C11.947 8.75899 11.9996 8.63181 11.9996 8.49921C11.9996 8.3666 11.947 8.23942 11.8532 8.14565C11.7594 8.05189 11.6322 7.99921 11.4996 7.99921H4.49963Z" fill="#FF0000"/>
</g>
</g>
<defs>
<clipPath id="clip0_5448_2667">
<rect width="16" height="16" fill="white" transform="translate(0 0.5)"/>
</clipPath>
<clipPath id="clip1_5448_2667">
<rect width="16" height="16" fill="white" transform="translate(0 0.5)"/>
</clipPath>
</defs>
</svg>
