<?xml version="1.0" standalone="no"?>
<!DOCTYPE svg PUBLIC "-//W3C//DTD SVG 20010904//EN"
 "http://www.w3.org/TR/2001/REC-SVG-20010904/DTD/svg10.dtd">
<svg version="1.0" xmlns="http://www.w3.org/2000/svg"
 width="1497.000000pt" height="581.000000pt" viewBox="0 0 1497.000000 581.000000"
 preserveAspectRatio="xMidYMid meet">
<metadata>
Created by potrace 1.16, written by Peter Selinger 2001-2019
</metadata>
<g transform="translate(0.000000,581.000000) scale(0.100000,-0.100000)"
fill="#000000" stroke="none">
<path d="M720 5353 c-122 -42 -217 -142 -258 -273 -14 -42 -253 -2908 -253
-3030 0 -47 5 -107 11 -134 29 -128 117 -244 228 -298 l67 -33 1545 0 1545 0
57 27 c101 47 185 141 223 247 41 117 43 72 -90 1680 -90 1094 -129 1523 -141
1558 -39 114 -137 214 -248 253 -54 19 -89 20 -1348 20 -1148 -1 -1298 -3
-1338 -17z m2600 -1266 c0 -387 -4 -687 -10 -737 -66 -540 -439 -959 -970
-1091 -84 -21 -118 -24 -285 -23 -172 0 -199 3 -285 26 -247 67 -426 168 -597
337 -176 174 -304 419 -354 680 -6 31 -13 230 -16 444 l-5 387 310 0 310 0 5
-357 c5 -394 7 -414 71 -548 108 -228 356 -371 611 -351 316 24 552 255 586
575 5 47 9 362 9 699 l0 612 310 0 310 0 0 -653z"/>
<path d="M8330 3835 l0 -1165 200 0 200 0 0 65 c0 36 3 65 6 65 3 0 18 -9 34
-20 51 -36 153 -79 229 -96 88 -20 241 -15 336 11 210 56 404 211 505 406 63
122 83 208 83 374 1 168 -14 241 -78 370 -78 160 -206 290 -360 366 -108 53
-179 70 -315 76 -159 7 -264 -20 -397 -102 l-43 -26 0 420 0 421 -200 0 -200
0 0 -1165z m868 85 c113 -21 216 -96 270 -197 40 -76 53 -137 53 -248 0 -234
-127 -399 -335 -435 -124 -22 -242 16 -332 105 -88 88 -124 186 -124 340 0
138 35 237 113 322 93 101 215 140 355 113z"/>
<path d="M4742 3753 c4 -526 5 -551 26 -626 31 -113 77 -192 158 -273 126
-127 295 -190 484 -181 110 5 182 27 261 81 l54 36 3 -60 3 -60 194 0 195 0 0
815 0 815 -194 0 -194 0 -5 -487 c-3 -308 -9 -506 -16 -538 -37 -164 -131
-239 -301 -239 -126 -1 -210 57 -247 169 -15 44 -18 114 -21 573 l-3 522 -200
0 -200 0 3 -547z"/>
<path d="M6480 3110 l0 -1190 195 0 195 0 0 445 0 444 65 -40 c184 -116 429
-130 652 -38 175 73 351 246 424 417 61 143 79 382 39 538 -51 197 -182 379
-354 489 -241 154 -565 154 -788 1 l-38 -25 0 74 0 75 -195 0 -195 0 0 -1190z
m881 806 c188 -44 309 -215 309 -436 0 -136 -44 -252 -126 -334 -134 -135
-339 -151 -501 -40 -205 141 -230 521 -46 708 98 99 225 135 364 102z"/>
<path d="M10714 4275 c-142 -31 -262 -96 -376 -204 -175 -165 -248 -340 -248
-590 0 -174 38 -313 122 -444 51 -79 187 -212 261 -256 250 -147 558 -148 772
-1 l45 31 0 -71 0 -70 200 0 200 0 0 785 0 785 -200 0 -200 0 0 -45 0 -44 -37
25 c-149 102 -354 139 -539 99z m316 -370 c98 -34 189 -126 231 -235 26 -68
37 -221 20 -301 -37 -179 -157 -300 -325 -330 -121 -21 -234 14 -330 102 -62
56 -100 123 -121 210 -61 262 67 512 292 569 51 13 177 5 233 -15z"/>
<path d="M12420 4283 c-149 -25 -310 -135 -370 -253 -62 -122 -67 -291 -11
-404 58 -119 160 -190 401 -281 212 -81 240 -100 240 -166 0 -85 -73 -149
-170 -149 -92 0 -172 64 -239 189 l-32 60 -47 -18 c-26 -11 -100 -40 -164 -66
l-117 -47 14 -39 c58 -165 182 -317 305 -377 166 -82 393 -82 560 0 44 21 89
55 140 107 117 118 157 221 148 383 -12 208 -118 309 -456 437 -161 61 -207
85 -228 116 -36 55 13 135 93 153 93 21 166 -15 250 -125 l25 -32 154 77 c116
58 153 81 149 92 -18 48 -79 133 -140 196 -76 77 -157 123 -253 143 -51 11
-199 13 -252 4z"/>
<path d="M13843 4274 c-369 -80 -622 -437 -600 -844 20 -353 230 -629 557
-732 65 -20 95 -23 225 -23 163 1 226 13 341 65 136 62 245 158 343 303 29 43
51 80 49 81 -10 8 -325 136 -333 135 -6 0 -29 -27 -53 -60 -122 -172 -383
-220 -560 -103 -57 37 -104 94 -133 162 -34 78 -81 72 532 72 l552 0 -6 163
c-4 124 -10 179 -27 237 -82 286 -291 492 -552 545 -93 18 -250 18 -335 -1z
m313 -369 c29 -14 72 -48 96 -74 39 -43 108 -165 108 -191 0 -7 -120 -10 -355
-10 l-354 0 14 39 c48 137 133 224 254 258 68 19 173 9 237 -22z"/>
<path d="M8295 2106 c-67 -21 -100 -43 -148 -96 -79 -88 -77 -67 -77 -730 0
-662 -2 -642 76 -729 26 -29 69 -62 102 -78 l57 -28 3110 0 3110 0 57 28 c33
16 76 49 102 78 79 88 77 66 74 750 l-3 604 -27 45 c-36 62 -93 115 -153 142
l-50 23 -3095 2 c-2476 1 -3103 -1 -3135 -11z m1859 -82 c63 -16 224 -90 264
-121 l23 -19 -56 -79 c-30 -44 -59 -80 -63 -80 -4 1 -52 23 -106 50 -97 48
-103 50 -202 53 -129 5 -200 -14 -255 -69 -61 -61 -64 -140 -7 -205 39 -44 89
-70 265 -135 76 -28 174 -70 217 -92 95 -49 191 -136 232 -209 27 -50 29 -60
29 -163 0 -101 -2 -115 -28 -168 -54 -110 -169 -195 -312 -232 -76 -19 -267
-19 -358 0 -38 8 -101 30 -141 49 -94 45 -199 123 -192 141 3 8 28 46 57 85
l51 71 27 -18 c130 -86 207 -119 310 -131 156 -18 294 21 352 101 23 32 29 50
29 94 0 65 -15 98 -69 146 -53 48 -109 75 -271 132 -194 68 -275 109 -340 175
-65 64 -88 108 -102 196 -32 190 102 369 319 429 68 19 251 18 327 -1z m985
-561 c134 -302 246 -551 250 -555 3 -4 114 242 246 545 l241 552 117 3 117 3
0 -726 0 -725 -105 0 -105 0 -2 509 -3 509 -219 -504 -219 -505 -69 3 -70 3
-224 510 -225 510 7 -517 6 -518 -106 0 -106 0 0 725 0 725 113 0 112 0 244
-547z m2211 447 l0 -100 -395 0 -395 0 0 -220 0 -220 390 0 390 0 0 -105 0
-105 -385 0 -385 0 0 -200 0 -200 390 0 390 0 0 -100 0 -100 -500 0 -500 0 0
725 0 725 500 0 500 0 0 -100z"/>
</g>
</svg>
