<svg width="14" height="8" viewBox="0 0 14 8" fill="none" xmlns="http://www.w3.org/2000/svg">
<path fill-rule="evenodd" clip-rule="evenodd" d="M0.875 4C0.875 3.88397 0.921094 3.77269 1.00314 3.69064C1.08519 3.6086 1.19647 3.5625 1.3125 3.5625H11.6314L8.87775 0.809753C8.7956 0.727603 8.74945 0.616182 8.74945 0.500003C8.74945 0.383825 8.7956 0.272404 8.87775 0.190253C8.9599 0.108102 9.07132 0.0619507 9.1875 0.0619507C9.30368 0.0619507 9.4151 0.108102 9.49725 0.190253L12.9972 3.69025C13.038 3.73089 13.0703 3.77917 13.0924 3.83232C13.1144 3.88548 13.1258 3.94246 13.1258 4C13.1258 4.05755 13.1144 4.11453 13.0924 4.16768C13.0703 4.22083 13.038 4.26911 12.9972 4.30975L9.49725 7.80975C9.4151 7.8919 9.30368 7.93806 9.1875 7.93806C9.07132 7.93806 8.9599 7.8919 8.87775 7.80975C8.7956 7.7276 8.74945 7.61618 8.74945 7.5C8.74945 7.38382 8.7956 7.2724 8.87775 7.19025L11.6314 4.4375H1.3125C1.19647 4.4375 1.08519 4.39141 1.00314 4.30936C0.921094 4.22732 0.875 4.11604 0.875 4Z" fill="#212529"/>
</svg>
