<svg width="6" height="10" viewBox="0 0 6 10" fill="none" xmlns="http://www.w3.org/2000/svg">
<path fill-rule="evenodd" clip-rule="evenodd" d="M0.48456 0.23456C0.519394 0.199638 0.560776 0.17193 0.606335 0.153026C0.651893 0.134121 0.700734 0.12439 0.75006 0.12439C0.799385 0.12439 0.848226 0.134121 0.893785 0.153026C0.939344 0.17193 0.980726 0.199638 1.01556 0.23456L5.51556 4.73456C5.55048 4.76939 5.57819 4.81078 5.59709 4.85633C5.616 4.90189 5.62573 4.95073 5.62573 5.00006C5.62573 5.04939 5.616 5.09823 5.59709 5.14378C5.57819 5.18934 5.55048 5.23073 5.51556 5.26556L1.01556 9.76556C0.945145 9.83597 0.849642 9.87553 0.75006 9.87553C0.650478 9.87553 0.554975 9.83597 0.48456 9.76556C0.414145 9.69514 0.374586 9.59964 0.374586 9.50006C0.374586 9.40048 0.414145 9.30497 0.48456 9.23456L4.71981 5.00006L0.48456 0.76556C0.449637 0.730726 0.42193 0.689344 0.403025 0.643785C0.38412 0.598226 0.37439 0.549385 0.37439 0.50006C0.37439 0.450735 0.38412 0.401894 0.403025 0.356335C0.42193 0.310776 0.449637 0.269394 0.48456 0.23456Z" fill="#212529"/>
</svg>
