<svg width="14" height="13" viewBox="0 0 14 13" fill="none" xmlns="http://www.w3.org/2000/svg">
<path fill-rule="evenodd" clip-rule="evenodd" d="M6.51126 0.8125C6.619 0.8125 6.72233 0.855301 6.79852 0.931488C6.8747 1.00767 6.91751 1.11101 6.91751 1.21875V10.8006L9.47363 8.24362C9.54991 8.16734 9.65337 8.12449 9.76126 8.12449C9.86914 8.12449 9.9726 8.16734 10.0489 8.24362C10.1252 8.31991 10.168 8.42337 10.168 8.53125C10.168 8.63913 10.1252 8.74259 10.0489 8.81888L6.79888 12.0689C6.76114 12.1067 6.71631 12.1367 6.66696 12.1572C6.6176 12.1777 6.56469 12.1882 6.51126 12.1882C6.45782 12.1882 6.40491 12.1777 6.35555 12.1572C6.3062 12.1367 6.26137 12.1067 6.22363 12.0689L2.97363 8.81888C2.89735 8.74259 2.85449 8.63913 2.85449 8.53125C2.85449 8.42337 2.89735 8.31991 2.97363 8.24362C3.04991 8.16734 3.15338 8.12449 3.26126 8.12449C3.36914 8.12449 3.4726 8.16734 3.54888 8.24362L6.10501 10.8006V1.21875C6.10501 1.11101 6.14781 1.00767 6.22399 0.931488C6.30018 0.855301 6.40351 0.8125 6.51126 0.8125Z" fill="#212529"/>
</svg>
