<?xml version="1.0" encoding="UTF-8"?>
<svg width="184px" height="59px" viewBox="0 0 184 59" version="1.1" xmlns="http://www.w3.org/2000/svg" xmlns:xlink="http://www.w3.org/1999/xlink">
    <!-- Generator: Sketch 64 (93537) - https://sketch.com -->
    <title>ic_bg_hotline</title>
    <desc>Created with Sketch.</desc>
    <g id="Page-1" stroke="none" stroke-width="1" fill="none" fill-rule="evenodd">
        <rect id="Rectangle" fill="#00D284" x="0" y="0" width="184" height="59" rx="13"></rect>
        <g id="phone-call-svgrepo-com" transform="translate(15.000000, 11.000000)" fill="#FFFFFF" fill-rule="nonzero">
            <path d="M28.6216512,22.2674731 C27.8795461,21.4982079 26.9844297,21.0869176 26.0357594,21.0869176 C25.0947396,21.0869176 24.1919727,21.4905914 23.4192654,22.2598566 L21.0016861,24.6590502 C20.8027713,24.5524194 20.6038566,24.453405 20.4125924,24.3543907 C20.137172,24.2172939 19.8770527,24.0878136 19.6551862,23.9507168 C17.3906183,22.5188172 15.3326157,20.6527778 13.3587693,18.2383513 C12.4024484,17.0349462 11.7598007,16.0219534 11.2931161,14.9937276 C11.9204626,14.422491 12.5019057,13.828405 13.0680477,13.2571685 C13.2822636,13.0439068 13.4964795,12.8230287 13.7106954,12.609767 C15.3173145,11.0103047 15.3173145,8.93862007 13.7106954,7.33915771 L11.6220905,5.25985663 C11.3849229,5.02374552 11.1401047,4.78001792 10.9105877,4.53629032 C10.4515537,4.0640681 9.96956794,3.5766129 9.47228107,3.11962366 C8.73017603,2.38844086 7.84271022,2 6.909341,2 C5.97597179,2 5.07320484,2.38844086 4.3081481,3.11962366 C4.30049754,3.12724014 4.30049754,3.12724014 4.29284697,3.13485663 L1.69165407,5.74731183 C0.712381447,6.72222222 0.153890031,7.91039427 0.031480953,9.28897849 C-0.152132663,11.5129928 0.505816129,13.5846774 1.01075357,14.9404122 C2.25014549,18.2688172 4.10158278,21.3534946 6.8634376,24.6590502 C10.2143861,28.6424731 14.2462351,31.7880824 18.8518766,34.0044803 C20.6115071,34.8346774 22.9602313,35.8172043 25.5843759,35.984767 C25.7450378,35.9923835 25.9133503,36 26.0663617,36 C27.8336427,36 29.3178528,35.3678315 30.480739,34.1111111 C30.4883896,34.0958781 30.5036907,34.0882616 30.5113413,34.0730287 C30.9091708,33.59319 31.3682048,33.1590502 31.8501906,32.6944444 C32.179165,32.3821685 32.5157899,32.0546595 32.8447643,31.7119176 C33.6021705,30.9274194 34,30.0134409 34,29.0766129 C34,28.1321685 33.5945199,27.2258065 32.8218126,26.4641577 L28.6216512,22.2674731 Z M31.3605543,30.2876344 C31.3529037,30.2876344 31.3529037,30.2952509 31.3605543,30.2876344 C31.0621821,30.6075269 30.7561594,30.8969534 30.427185,31.2168459 C29.9298982,31.6890681 29.4249607,32.1841398 28.9506255,32.7401434 C28.1779182,33.562724 27.2675007,33.9511649 26.0740122,33.9511649 C25.9592537,33.9511649 25.8368446,33.9511649 25.7220861,33.9435484 C23.4498676,33.7988351 21.338311,32.9153226 19.7546436,32.1612903 C15.4244225,30.0743728 11.6220905,27.1115591 8.46240618,23.3566308 C5.85356271,20.2262545 4.10923335,17.3319892 2.95399768,14.2244624 C2.24249492,12.327957 1.98237563,10.8503584 2.09713414,9.45654122 C2.17363981,8.56541219 2.51791534,7.8266129 3.15291243,7.19444444 L5.7617559,4.59722222 C6.1366337,4.2468638 6.5344632,4.05645161 6.92464214,4.05645161 C7.40662788,4.05645161 7.79680682,4.34587814 8.04162497,4.58960573 C8.04927554,4.59722222 8.05692611,4.60483871 8.06457667,4.6124552 C8.53126128,5.04659498 8.97499419,5.49596774 9.4416788,5.97580645 C9.67884639,6.21953405 9.92366454,6.46326165 10.1684827,6.71460573 L12.2570876,8.79390681 C13.0680477,9.60125448 13.0680477,10.3476703 12.2570876,11.1550179 C12.0352211,11.3758961 11.8210052,11.5967742 11.5991388,11.8100358 C10.9564911,12.4650538 10.3444457,13.0743728 9.67884639,13.6684588 C9.66354525,13.6836918 9.64824412,13.6913082 9.64059355,13.7065412 C8.98264476,14.3615591 9.10505383,15.0013441 9.24276405,15.4354839 C9.25041461,15.4583333 9.25806518,15.4811828 9.26571575,15.5040323 C9.80890603,16.8140681 10.5739628,18.0479391 11.736849,19.5179211 L11.7444996,19.5255376 C13.8560562,22.1151434 16.0823713,24.1335125 18.5382034,25.6796595 C18.8518766,25.8776882 19.1732005,26.0376344 19.4792232,26.1899642 C19.7546436,26.3270609 20.0147629,26.4565412 20.2366293,26.593638 C20.2672316,26.608871 20.2978339,26.6317204 20.3284361,26.6469534 C20.5885554,26.7764337 20.8333736,26.8373656 21.0858423,26.8373656 C21.7208394,26.8373656 22.1186689,26.4413082 22.2487285,26.311828 L24.8652226,23.7069892 C25.1253419,23.4480287 25.5384725,23.1357527 26.0204583,23.1357527 C26.4947934,23.1357527 26.8849724,23.4327957 27.1221399,23.6917563 C27.1297905,23.6993728 27.1297905,23.6993728 27.1374411,23.7069892 L31.3529037,27.9036738 C32.1409121,28.6805556 32.1409121,29.4802867 31.3605543,30.2876344 Z" id="Shape"></path>
            <path d="M18.8560268,8.0632203 C20.8743349,8.4022016 22.7077599,9.35751253 24.1714185,10.8212954 C25.6350771,12.2850783 26.5826035,14.118659 26.9292595,16.1371385 C27.0139976,16.6456105 27.4530952,17 27.9538205,17 C28.0154482,17 28.0693725,16.9922959 28.1310002,16.9845918 C28.7010567,16.8921423 29.0785266,16.3528539 28.986085,15.782749 C28.5700978,13.3405428 27.4145778,11.114052 25.6504841,9.34980841 C23.8863903,7.58556483 21.6600885,6.42994676 19.2180897,6.01392426 C18.6480332,5.92147482 18.116494,6.29897672 18.016349,6.86137751 C17.9162039,7.4237783 18.2859703,7.97077085 18.8560268,8.0632203 Z" id="Path"></path>
            <path d="M35.9844278,15.8192648 C35.311045,11.868343 33.4497846,8.27315559 30.589799,5.41214328 C27.7298134,2.55113098 24.1359162,0.689202334 20.1864123,0.0155777435 C19.6340871,-0.0828168596 19.1120262,0.295623922 19.0136669,0.848147462 C18.9228737,1.40823982 19.2936126,1.9304881 19.8535039,2.0288827 C23.3793063,2.62681913 26.5948985,4.29952739 29.1522401,6.85021825 C31.7095817,9.40847793 33.3741236,12.6252246 33.9718454,16.1522927 C34.0550725,16.6518345 34.4863402,17 34.9781366,17 C35.0386654,17 35.0916281,16.9924312 35.1521569,16.9848624 C35.7044822,16.9016054 36.0827871,16.3717883 35.9844278,15.8192648 Z" id="Path"></path>
        </g>
        <rect id="Rectangle" fill="#FFFFFF" x="60" y="8" width="1" height="43"></rect>
        <text id="Hotline-hỗ-trợ" font-family="ArialMT, Arial" font-size="14" font-weight="normal" fill="#FFFFFF">
            <tspan x="70" y="24">Hotline hỗ trợ</tspan>
        </text>
        <text id="0944427799" font-family="Arial-BoldMT, Arial" font-size="18" font-weight="bold" fill="#FFFFFF">
            <tspan x="70" y="46">0944427799</tspan>
        </text>
    </g>
</svg>