<svg width="24" height="24" viewBox="0 0 24 24" fill="none" xmlns="http://www.w3.org/2000/svg">
<path fill-rule="evenodd" clip-rule="evenodd" d="M5.99989 0H21.4284C22.8486 0 23.9999 1.15127 23.9999 2.57143V18C23.9999 19.4202 22.8486 20.5715 21.4284 20.5715C20.955 20.5715 20.5713 20.1877 20.5713 19.7143C20.5713 19.2409 20.955 18.8571 21.4284 18.8571C21.9018 18.8571 22.2856 18.4734 22.2856 18V2.57143C22.2856 2.09802 21.9018 1.71427 21.4284 1.71427H5.99989C5.52649 1.71427 5.14273 2.09802 5.14273 2.57143C5.14273 3.04483 4.75903 3.42859 4.28562 3.42859C3.81222 3.42859 3.42847 3.04483 3.42847 2.57143C3.42847 1.15127 4.57973 0 5.99989 0ZM2.57143 4.28564H17.1428C18.563 4.28564 19.7143 5.43691 19.7143 6.85707V21.4285C19.7143 22.8486 18.563 23.9999 17.1428 23.9999H2.57143C1.15127 23.9999 0 22.8486 0 21.4285V6.85707C0 5.43691 1.15127 4.28564 2.57143 4.28564ZM17.1428 22.2857C17.6162 22.2857 18 21.9019 18 21.4285V6.85707C18 6.38367 17.6162 5.99991 17.1428 5.99991H2.57143C2.09802 5.99991 1.71427 6.38367 1.71427 6.85707V21.4285C1.71427 21.9019 2.09802 22.2857 2.57143 22.2857H17.1428Z" fill="#4253A1"/>
</svg>
