<svg width="17" height="10" viewBox="0 0 17 10" fill="none" xmlns="http://www.w3.org/2000/svg">
<path d="M5.21143 5.18359V6.54102C5.16097 6.60775 5.08203 6.68099 4.97461 6.76074C4.86882 6.83887 4.72803 6.90641 4.55225 6.96338C4.37647 7.02035 4.15756 7.04883 3.89551 7.04883C3.67253 7.04883 3.46827 7.01139 3.28272 6.93652C3.09717 6.86003 2.93685 6.74854 2.80176 6.60205C2.6683 6.45557 2.56494 6.27734 2.4917 6.06738C2.41846 5.85579 2.38184 5.61491 2.38184 5.34473V5.09814C2.38184 4.82959 2.41521 4.59033 2.48194 4.38037C2.5503 4.16878 2.64795 3.98975 2.77491 3.84326C2.90186 3.69678 3.05485 3.5861 3.23389 3.51123C3.41455 3.43473 3.61882 3.39648 3.84668 3.39648C4.13802 3.39648 4.37891 3.44531 4.56934 3.54297C4.7614 3.639 4.90951 3.77246 5.01368 3.94336C5.11784 4.11426 5.18376 4.30957 5.21143 4.5293H4.61084C4.59131 4.4056 4.55306 4.29492 4.4961 4.19727C4.44076 4.09961 4.36101 4.02311 4.25684 3.96777C4.1543 3.91081 4.02084 3.88232 3.85645 3.88232C3.71485 3.88232 3.59034 3.90918 3.48291 3.96289C3.37549 4.0166 3.28597 4.09554 3.21436 4.19971C3.14437 4.30387 3.09147 4.43083 3.05567 4.58057C3.01986 4.73031 3.00196 4.9012 3.00196 5.09326V5.34473C3.00196 5.54004 3.0223 5.71338 3.06299 5.86475C3.10531 6.01611 3.16553 6.14388 3.24366 6.24805C3.32341 6.35221 3.42025 6.43115 3.53418 6.48486C3.64812 6.53695 3.7767 6.56299 3.91993 6.56299C4.0599 6.56299 4.17465 6.5516 4.26416 6.52881C4.35368 6.50439 4.42448 6.47591 4.47657 6.44336C4.53028 6.40918 4.57178 6.37663 4.60108 6.3457V5.64014H3.86133V5.18359H5.21143ZM7.35254 3.44531V7H6.74463V3.44531H7.35254ZM8.46827 3.44531V3.93359H5.63868V3.44531H8.46827ZM9.59131 3.44531V7H8.97852V3.44531H9.59131ZM13.1729 3.44531V7H12.5601L10.9658 4.45361V7H10.353V3.44531H10.9658L12.5649 5.99658V3.44531H13.1729Z" fill="#888484"/>
<path d="M0 6V9H2.58167H3.61433" stroke="#888484"/>
<path d="M3.61438 1L4.52995e-05 1V3.14286V4" stroke="#888484"/>
<path d="M12.0477 9H15.6621V6.85714V6" stroke="#888484"/>
<path d="M15.6621 4L15.6621 1L13.0804 1H12.0478" stroke="#888484"/>
</svg>
