<?xml version="1.0" encoding="UTF-8"?>
<svg width="60px" height="60px" viewBox="0 0 60 60" version="1.1" xmlns="http://www.w3.org/2000/svg" xmlns:xlink="http://www.w3.org/1999/xlink">
    <!-- Generator: Sketch 64 (93537) - https://sketch.com -->
    <title>ic_hotline</title>
    <desc>Created with Sketch.</desc>
    <g id="Page-1" stroke="none" stroke-width="1" fill="none" fill-rule="evenodd">
        <circle id="Oval" fill="#00D284" cx="30" cy="30" r="30"></circle>
        <g id="0fa7bc177ab66e8a1c36bcf8d681ae0b" transform="translate(4.000000, 9.000000)" fill="#FFFFFF" fill-rule="nonzero">
            <path d="M26.0523467,4.97196579 C17.1161645,4.97196579 9.87276255,12.1420638 9.87276255,20.9869293 C9.87276255,25.32039 11.6133016,29.2456261 14.4310646,32.1293663 C15.7152428,33.2703016 17.1108579,34.2803957 18.6497492,35.0706766 C19.4881796,35.4998357 20.4115143,35.9342285 21.3773013,36.3267521 C22.8578208,36.7663786 24.4285511,37.0071264 26.0523467,37.0071264 C34.988529,37.0071264 42.2319309,29.8370284 42.2319309,20.9921629 C42.2319309,12.1420638 34.988529,4.97196579 26.0523467,4.97196579 L26.0523467,4.97196579 Z M26.0523467,34.5996482 C18.4587144,34.5996482 12.2978429,28.5024481 12.2978429,20.9869293 C12.2978429,13.4661768 18.4587144,7.37421031 26.0523467,7.37421031 C33.645979,7.37421031 39.8068506,13.4661768 39.8068506,20.9869293 C39.8068506,28.5076817 33.6512856,34.5996482 26.0523467,34.5996482 L26.0523467,34.5996482 Z M17.2382144,24.2160902 C26.4025771,31.8781512 34.8717855,24.2160902 34.8717855,24.2160902 C34.8717855,24.2160902 34.8717855,32.1450672 26.0523467,32.1450672 C17.2382144,32.1450672 17.2382144,24.2160902 17.2382144,24.2160902 L17.2382144,24.2160902 Z M26.0523467,0 C16.1026188,0 7.75015394,6.78804171 5.46834968,15.9469261 C5.46834968,15.9469261 -0.2414675,16.8418799 0.00793901263,22.5256218 C0.262652047,28.2093638 6.28555399,28.5547846 6.28555399,28.5547846 C6.35984529,28.7379622 7.62279742,28.3768405 8.07915827,28.2983358 C7.13990396,26.0426334 6.61986485,23.5723515 6.61986485,20.9816956 C6.61986485,10.3573898 15.3225602,1.74280485 26.0523467,1.74280485 C36.7874398,1.74280485 45.4848286,10.3573898 45.4848286,20.9816956 C45.4848286,29.4602057 39.9448201,36.6512383 32.2556704,39.2157259 C31.7568574,39.3832027 31.2368183,39.1581558 31.2368183,39.1581558 C31.2368183,39.1581558 29.9367205,38.917408 28.3023119,39.3727354 C27.4957206,39.5977823 27.1507967,40.4508669 27.1985554,41.194045 C27.2569271,42.0785315 27.5965445,42.7170366 28.5357988,42.8583451 C29.7403792,43.0467564 31.4543857,43.2561023 32.1017813,41.9843258 C32.2768965,41.638905 32.4679313,40.9951663 32.8765334,40.8590915 C38.8198375,38.8598379 43.5744808,34.3222649 45.8297525,28.5495509 C45.8297525,28.5495509 51.8208153,27.8534757 51.9959305,22.389547 C52.1710457,16.9256183 46.6363438,15.9573934 46.6363438,15.9573934 C44.3704591,6.79850901 36.0126877,0 26.0523467,0 L26.0523467,0 Z" id="Shape"></path>
        </g>
    </g>
</svg>