<svg width="15" height="10" viewBox="0 0 15 10" fill="none" xmlns="http://www.w3.org/2000/svg">
<path d="M1 6V9H3.14286H4" stroke="#888484"/>
<path d="M4 1H1V3.14286V4" stroke="#888484"/>
<path d="M11 9H14V6.85714V6" stroke="#888484"/>
<path d="M14 4V1H11.8571H11" stroke="#888484"/>
<path d="M5.00244 6.08447C5.00244 5.92822 4.9471 5.80778 4.83643 5.72314C4.72738 5.63851 4.52962 5.55306 4.24316 5.4668C3.95671 5.38053 3.72884 5.28451 3.55957 5.17871C3.23568 4.97526 3.07373 4.70996 3.07373 4.38281C3.07373 4.09635 3.1901 3.86035 3.42285 3.6748C3.65723 3.48926 3.96077 3.39648 4.3335 3.39648C4.58089 3.39648 4.80143 3.44206 4.99512 3.5332C5.1888 3.62435 5.34098 3.75456 5.45166 3.92383C5.56234 4.09147 5.61768 4.27783 5.61768 4.48291H5.00244C5.00244 4.29736 4.94385 4.15251 4.82666 4.04834C4.7111 3.94255 4.54508 3.88965 4.32861 3.88965C4.12679 3.88965 3.96973 3.93278 3.85742 4.01904C3.74674 4.10531 3.69141 4.22575 3.69141 4.38037C3.69141 4.51058 3.75163 4.61963 3.87207 4.70752C3.99251 4.79378 4.19108 4.87842 4.46777 4.96143C4.74447 5.04281 4.96663 5.13639 5.13428 5.24219C5.30192 5.34635 5.4248 5.4668 5.50293 5.60352C5.58105 5.73861 5.62012 5.8973 5.62012 6.07959C5.62012 6.37581 5.50618 6.61182 5.27832 6.7876C5.05208 6.96175 4.74447 7.04883 4.35547 7.04883C4.09831 7.04883 3.86149 7.00163 3.64502 6.90723C3.43018 6.8112 3.26253 6.67936 3.14209 6.51172C3.02327 6.34408 2.96387 6.14876 2.96387 5.92578H3.58154C3.58154 6.1276 3.64827 6.28385 3.78174 6.39453C3.9152 6.50521 4.10645 6.56055 4.35547 6.56055C4.57031 6.56055 4.73145 6.51742 4.83887 6.43115C4.94792 6.34326 5.00244 6.2277 5.00244 6.08447ZM7.18262 5.46436L6.77979 5.8916V7H6.16211V3.44531H6.77979V5.11279L7.12158 4.69043L8.16162 3.44531H8.90869L7.58789 5.02002L8.98438 7H8.25195L7.18262 5.46436ZM11.9165 3.44531V5.8208C11.9165 6.1984 11.7952 6.49788 11.5527 6.71924C11.3118 6.93896 10.9904 7.04883 10.5884 7.04883C10.1815 7.04883 9.8584 6.94059 9.61914 6.72412C9.37988 6.50602 9.26025 6.2041 9.26025 5.81836V3.44531H9.87549V5.82324C9.87549 6.06087 9.93571 6.24235 10.0562 6.36768C10.1766 6.493 10.354 6.55566 10.5884 6.55566C11.0636 6.55566 11.3013 6.30501 11.3013 5.80371V3.44531H11.9165Z" fill="#888484"/>
</svg>
