<svg width="16" height="16" viewBox="0 0 16 16" fill="none" xmlns="http://www.w3.org/2000/svg">
<path fill-rule="evenodd" clip-rule="evenodd" d="M1.88498 0.511025C2.05996 0.336313 2.27006 0.200783 2.50138 0.113415C2.7327 0.0260465 2.97994 -0.0111645 3.22672 0.00424771C3.47351 0.0196599 3.7142 0.0873434 3.93285 0.202813C4.15149 0.318282 4.34311 0.478901 4.49498 0.674025L6.28998 2.98002C6.61898 3.40302 6.73498 3.95402 6.60498 4.47402L6.05798 6.66402C6.0297 6.77745 6.03123 6.89627 6.06242 7.00893C6.09361 7.1216 6.1534 7.22429 6.23598 7.30702L8.69298 9.76402C8.77582 9.84678 8.87868 9.90667 8.99153 9.93786C9.10439 9.96906 9.22341 9.97049 9.33698 9.94203L11.526 9.39503C11.7826 9.33086 12.0504 9.32588 12.3093 9.38045C12.5681 9.43502 12.8111 9.54772 13.02 9.71002L15.326 11.504C16.155 12.149 16.231 13.374 15.489 14.115L14.455 15.149C13.715 15.889 12.609 16.214 11.578 15.851C8.93917 14.9226 6.54325 13.4119 4.56798 11.431C2.58727 9.45604 1.07659 7.06048 0.147983 4.42202C-0.214017 3.39202 0.110983 2.28502 0.850983 1.54502L1.88498 0.511025Z" fill="#FF5629"/>
</svg>
