<svg class="svg-icon" style="width: 1em;height: 1em;vertical-align: middle;fill: currentColor;overflow: hidden;" viewBox="0 0 1024 1024" version="1.1" xmlns="http://www.w3.org/2000/svg"><path d="M231.04 643.84a97.066667 97.066667 0 0 1-96.853333-96.853333v-43.306667c0-53.333333 43.52-96.853333 96.853333-96.853333s96.853333 43.52 96.853333 96.853333v43.306667c0 53.546667-43.306667 96.853333-96.853333 96.853333z m0-172.8c-18.133333 0-32.853333 14.72-32.853333 32.853333v43.306667a32.853333 32.853333 0 0 0 65.706666 0v-43.306667c0-18.133333-14.72-32.853333-32.853333-32.853333zM792.96 643.84a97.066667 97.066667 0 0 1-96.853333-96.853333v-43.306667c0-53.333333 43.52-96.853333 96.853333-96.853333s96.853333 43.52 96.853333 96.853333v43.306667c-0.213333 53.546667-43.52 96.853333-96.853333 96.853333z m0-172.8c-18.133333 0-32.853333 14.72-32.853333 32.853333v43.306667a32.853333 32.853333 0 0 0 65.706666 0v-43.306667c-0.213333-18.133333-14.933333-32.853333-32.853333-32.853333zM497.28 722.773333c-37.12 0-72.106667-14.506667-98.56-40.96a31.786667 31.786667 0 0 1 0-45.226666 31.786667 31.786667 0 0 1 45.226667 0c28.586667 28.586667 78.08 28.586667 106.453333 0 12.586667-12.586667 32.853333-12.586667 45.226667 0s12.586667 32.853333 0 45.226666a137.621333 137.621333 0 0 1-98.346667 40.96z" fill="#2B2C2C" /><path d="M824.96 441.813333h-64c0-137.173333-111.573333-248.96-248.96-248.96s-248.96 111.573333-248.96 248.96h-64c0-172.586667 140.373333-312.96 312.96-312.96s312.96 140.373333 312.96 312.96zM555.306667 862.72v-64c113.493333 0 205.653333-92.373333 205.653333-205.653333h64c0 148.693333-120.96 269.653333-269.653333 269.653333z" fill="#2B2C2C" /><path d="M512 895.146667a75.306667 75.306667 0 1 1-0.021333-150.634667A75.306667 75.306667 0 0 1 512 895.146667z m0-86.4c-6.186667 0-11.306667 5.12-11.306667 11.306666s5.12 11.306667 11.306667 11.306667 11.306667-5.12 11.306667-11.306667-5.12-11.306667-11.306667-11.306666z" fill="#2B2C2C" /></svg>