<svg width="16" height="13" viewBox="0 0 16 13" fill="none" xmlns="http://www.w3.org/2000/svg">
<path fill-rule="evenodd" clip-rule="evenodd" d="M14.5938 0H1.40625C0.631813 0 0 0.631125 0 1.40625V10.7812C0 11.5538 0.629 12.1875 1.40625 12.1875H14.5938C15.3663 12.1875 16 11.5585 16 10.7812V1.40625C16 0.63375 15.371 0 14.5938 0ZM14.3996 0.9375L8.02981 7.30728L1.60497 0.9375H14.3996ZM0.9375 1.59591V10.5871L5.45247 6.07216L0.9375 1.59591ZM1.60041 11.25L6.11822 6.73219L7.70125 8.30163C7.8845 8.48331 8.18022 8.48272 8.36272 8.30019L9.90625 6.75666L14.3996 11.25H1.60041ZM10.5692 6.09375L15.0625 10.5871V1.60037L10.5692 6.09375Z" fill="#FF5629"/>
</svg>
