<svg width="14" height="15" viewBox="0 0 14 15" fill="none" xmlns="http://www.w3.org/2000/svg">
<path d="M2.18726 7.49915C2.18713 6.65432 2.4094 5.82434 2.83173 5.09264C3.25407 4.36094 3.86157 3.75331 4.59319 3.33084C5.3248 2.90837 6.15474 2.68593 6.99958 2.6859C7.84441 2.68587 8.67437 2.90823 9.40601 3.33065C9.50645 3.38775 9.62539 3.40281 9.73688 3.37254C9.84837 3.34227 9.94337 3.26913 10.0011 3.16908C10.0589 3.06903 10.0747 2.95019 10.0452 2.8385C10.0157 2.72681 9.94318 2.63133 9.84351 2.5729C8.75927 1.94691 7.49876 1.69617 6.25749 1.85957C5.01621 2.02296 3.86354 2.59137 2.97822 3.47662C2.09291 4.36188 1.52443 5.51452 1.36096 6.75578C1.19748 7.99704 1.44814 9.25757 2.07406 10.3419C2.69998 11.4261 3.66619 12.2736 4.82283 12.7528C5.97947 13.232 7.26192 13.3162 8.47127 12.9923C9.68062 12.6683 10.7493 11.9544 11.5116 10.9613C12.2738 9.96808 12.6871 8.75113 12.6873 7.49915C12.6873 7.38312 12.6412 7.27184 12.5591 7.18979C12.4771 7.10775 12.3658 7.06165 12.2498 7.06165C12.1337 7.06165 12.0225 7.10775 11.9404 7.18979C11.8584 7.27184 11.8123 7.38312 11.8123 7.49915C11.8123 8.77551 11.3052 9.99958 10.4027 10.9021C9.5002 11.8046 8.27612 12.3117 6.99976 12.3117C5.72341 12.3117 4.49933 11.8046 3.59681 10.9021C2.69429 9.99958 2.18726 8.77551 2.18726 7.49915Z" fill="#FF5629"/>
<path d="M13.4345 3.4339C13.4752 3.39322 13.5075 3.34493 13.5295 3.29179C13.5515 3.23864 13.5628 3.18168 13.5628 3.12415C13.5628 3.06663 13.5515 3.00966 13.5295 2.95652C13.5075 2.90337 13.4752 2.85508 13.4345 2.8144C13.3938 2.77372 13.3455 2.74146 13.2924 2.71944C13.2393 2.69743 13.1823 2.6861 13.1248 2.6861C13.0672 2.6861 13.0103 2.69743 12.9571 2.71944C12.904 2.74146 12.8557 2.77372 12.815 2.8144L6.99976 8.63053L4.68451 6.3144C4.64384 6.27372 4.59555 6.24146 4.5424 6.21944C4.48925 6.19743 4.43229 6.1861 4.37476 6.1861C4.31724 6.1861 4.26028 6.19743 4.20713 6.21944C4.15398 6.24146 4.10569 6.27372 4.06501 6.3144C4.02434 6.35508 3.99207 6.40337 3.97006 6.45652C3.94804 6.50966 3.93671 6.56663 3.93671 6.62415C3.93671 6.68168 3.94804 6.73864 3.97006 6.79179C3.99207 6.84493 4.02434 6.89322 4.06501 6.9339L6.69001 9.5589C6.73065 9.59964 6.77893 9.63197 6.83208 9.65402C6.88524 9.67608 6.94222 9.68743 6.99976 9.68743C7.05731 9.68743 7.11429 9.67608 7.16744 9.65402C7.22059 9.63197 7.26887 9.59964 7.30951 9.5589L13.4345 3.4339Z" fill="#FF5629"/>
</svg>
