<svg width="17" height="16" viewBox="0 0 17 16" fill="none" xmlns="http://www.w3.org/2000/svg">
<g clip-path="url(#clip0_4935_10478)">
<rect width="16" height="16" transform="translate(0.5)" fill="white" fill-opacity="0.01"/>
<g clip-path="url(#clip1_4935_10478)">
<path fill-rule="evenodd" clip-rule="evenodd" d="M4.90563 1.34102C5.90512 0.479159 7.17988 0.00316195 8.49963 -0.000976562C11.1896 -0.000976562 13.4226 1.99902 13.6656 4.57802C15.2576 4.80302 16.4996 6.13602 16.4996 7.77202C16.4996 9.56802 15.0016 10.999 13.1866 10.999H10.4996C10.367 10.999 10.2398 10.9463 10.1461 10.8526C10.0523 10.7588 9.99963 10.6316 9.99963 10.499C9.99963 10.3664 10.0523 10.2392 10.1461 10.1455C10.2398 10.0517 10.367 9.99902 10.4996 9.99902H13.1876C14.4786 9.99902 15.4996 8.98702 15.4996 7.77202C15.4996 6.55602 14.4796 5.54402 13.1866 5.54402H12.6866V5.04402C12.6876 2.82402 10.8276 0.999023 8.49963 0.999023C7.41951 1.00334 6.37647 1.39346 5.55863 2.09902C4.80163 2.75102 4.40563 3.53702 4.40563 4.15402V4.60202L3.96063 4.65102C2.56363 4.80402 1.49963 5.95102 1.49963 7.31702C1.49963 8.78402 2.72963 9.99902 4.28063 9.99902H6.49963C6.63224 9.99902 6.75942 10.0517 6.85319 10.1455C6.94696 10.2392 6.99963 10.3664 6.99963 10.499C6.99963 10.6316 6.94696 10.7588 6.85319 10.8526C6.75942 10.9463 6.63224 10.999 6.49963 10.999H4.28063C2.20763 10.999 0.499634 9.36502 0.499634 7.31702C0.499634 5.55402 1.76563 4.09402 3.44163 3.72402C3.58463 2.86102 4.13963 2.00102 4.90563 1.34102Z" fill="#FF5629"/>
<path fill-rule="evenodd" clip-rule="evenodd" d="M8.14563 4.14502C8.19208 4.09846 8.24725 4.06152 8.308 4.03631C8.36875 4.0111 8.43387 3.99813 8.49963 3.99813C8.5654 3.99813 8.63052 4.0111 8.69127 4.03631C8.75201 4.06152 8.80719 4.09846 8.85363 4.14502L11.8536 7.14502C11.9475 7.23891 12.0003 7.36625 12.0003 7.49902C12.0003 7.6318 11.9475 7.75914 11.8536 7.85302C11.7597 7.94691 11.6324 7.99965 11.4996 7.99965C11.3669 7.99965 11.2395 7.94691 11.1456 7.85302L8.99963 5.70602V14.499C8.99963 14.6316 8.94696 14.7588 8.85319 14.8526C8.75942 14.9463 8.63224 14.999 8.49963 14.999C8.36703 14.999 8.23985 14.9463 8.14608 14.8526C8.05231 14.7588 7.99963 14.6316 7.99963 14.499V5.70602L5.85363 7.85302C5.75975 7.94691 5.63241 7.99965 5.49963 7.99965C5.36686 7.99965 5.23952 7.94691 5.14563 7.85302C5.05175 7.75914 4.999 7.6318 4.999 7.49902C4.999 7.36625 5.05175 7.23891 5.14563 7.14502L8.14563 4.14502Z" fill="#FF5629"/>
</g>
</g>
<defs>
<clipPath id="clip0_4935_10478">
<rect width="16" height="16" fill="white" transform="translate(0.5)"/>
</clipPath>
<clipPath id="clip1_4935_10478">
<rect width="16" height="16" fill="white" transform="translate(0.5)"/>
</clipPath>
</defs>
</svg>
