<svg width="18" height="23" viewBox="0 0 18 23" fill="none" xmlns="http://www.w3.org/2000/svg">
<path d="M9 1.5C7.01088 1.5 5.10322 2.29018 3.6967 3.6967C2.29018 5.10322 1.5 7.01088 1.5 9V10.5H3C3.39782 10.5 3.77936 10.658 4.06066 10.9393C4.34196 11.2206 4.5 11.6022 4.5 12V16.5C4.5 16.8978 4.34196 17.2794 4.06066 17.5607C3.77936 17.842 3.39782 18 3 18H1.5C1.10218 18 0.720644 17.842 0.43934 17.5607C0.158035 17.2794 0 16.8978 0 16.5V9C-1.76116e-08 7.8181 0.232792 6.64778 0.685084 5.55585C1.13738 4.46392 1.80031 3.47177 2.63604 2.63604C3.47177 1.80031 4.46392 1.13738 5.55585 0.685084C6.64778 0.232792 7.8181 0 9 0C10.1819 0 11.3522 0.232792 12.4442 0.685084C13.5361 1.13738 14.5282 1.80031 15.364 2.63604C16.1997 3.47177 16.8626 4.46392 17.3149 5.55585C17.7672 6.64778 18 7.8181 18 9V18C18 18.9946 17.6049 19.9484 16.9017 20.6517C16.1984 21.3549 15.2446 21.75 14.25 21.75H11.049C10.9174 21.978 10.728 22.1674 10.5 22.299C10.272 22.4307 10.0133 22.5 9.75 22.5H8.25C7.85218 22.5 7.47064 22.342 7.18934 22.0607C6.90804 21.7794 6.75 21.3978 6.75 21C6.75 20.6022 6.90804 20.2206 7.18934 19.9393C7.47064 19.658 7.85218 19.5 8.25 19.5H9.75C10.0133 19.5 10.272 19.5693 10.5 19.701C10.728 19.8326 10.9174 20.022 11.049 20.25H14.25C14.8467 20.25 15.419 20.0129 15.841 19.591C16.2629 19.169 16.5 18.5967 16.5 18H15C14.6022 18 14.2206 17.842 13.9393 17.5607C13.658 17.2794 13.5 16.8978 13.5 16.5V12C13.5 11.6022 13.658 11.2206 13.9393 10.9393C14.2206 10.658 14.6022 10.5 15 10.5H16.5V9C16.5 8.01509 16.306 7.03982 15.9291 6.12987C15.5522 5.21993 14.9997 4.39314 14.3033 3.6967C13.6069 3.00026 12.7801 2.44781 11.8701 2.0709C10.9602 1.69399 9.98491 1.5 9 1.5V1.5Z" fill="#FF5629"/>
</svg>
