<svg width="16" height="16" viewBox="0 0 16 16" fill="none" xmlns="http://www.w3.org/2000/svg">
<g clip-path="url(#clip0_6713_5104)">
<rect width="16" height="16" fill="white" fill-opacity="0.01"/>
<g clip-path="url(#clip1_6713_5104)">
<path d="M8.9817 1.56546C8.88271 1.39303 8.73998 1.24976 8.56791 1.15014C8.39584 1.05051 8.20053 0.998047 8.0017 0.998047C7.80287 0.998047 7.60756 1.05051 7.43549 1.15014C7.26343 1.24976 7.12069 1.39303 7.0217 1.56546L0.164702 13.2325C-0.292298 14.0105 0.255702 14.9995 1.1447 14.9995H14.8577C15.7467 14.9995 16.2957 14.0095 15.8377 13.2325L8.9817 1.56546ZM7.9997 4.99946C8.5347 4.99946 8.9537 5.46146 8.8997 5.99446L8.5497 9.50146C8.53794 9.63923 8.4749 9.76758 8.37306 9.8611C8.27121 9.95462 8.13797 10.0065 7.9997 10.0065C7.86143 10.0065 7.72819 9.95462 7.62635 9.8611C7.5245 9.76758 7.46146 9.63923 7.4497 9.50146L7.0997 5.99446C7.08713 5.8687 7.10105 5.74169 7.14055 5.62163C7.18005 5.50157 7.24426 5.39111 7.32905 5.29738C7.41383 5.20364 7.51731 5.1287 7.63282 5.07739C7.74833 5.02608 7.87331 4.99954 7.9997 4.99946ZM8.0017 10.9995C8.26692 10.9995 8.52127 11.1048 8.70881 11.2924C8.89634 11.4799 9.0017 11.7342 9.0017 11.9995C9.0017 12.2647 8.89634 12.519 8.70881 12.7066C8.52127 12.8941 8.26692 12.9995 8.0017 12.9995C7.73649 12.9995 7.48213 12.8941 7.2946 12.7066C7.10706 12.519 7.0017 12.2647 7.0017 11.9995C7.0017 11.7342 7.10706 11.4799 7.2946 11.2924C7.48213 11.1048 7.73649 10.9995 8.0017 10.9995Z" fill="#FF0000"/>
</g>
</g>
<defs>
<clipPath id="clip0_6713_5104">
<rect width="16" height="16" fill="white"/>
</clipPath>
<clipPath id="clip1_6713_5104">
<rect width="16" height="16" fill="white"/>
</clipPath>
</defs>
</svg>
