<svg width="36" height="36" viewBox="0 0 36 36" fill="none" xmlns="http://www.w3.org/2000/svg">
<path d="M6.75 5.625C6.75 4.13316 7.34263 2.70242 8.39752 1.64752C9.45242 0.592632 10.8832 0 12.375 0C13.8668 0 15.2976 0.592632 16.3525 1.64752C17.4074 2.70242 18 4.13316 18 5.625C18 4.13316 18.5926 2.70242 19.6475 1.64752C20.7024 0.592632 22.1332 0 23.625 0C25.1168 0 26.5476 0.592632 27.6025 1.64752C28.6574 2.70242 29.25 4.13316 29.25 5.625V5.6385C29.25 5.796 29.25 6.246 29.1645 6.75H33.75C34.3467 6.75 34.919 6.98705 35.341 7.40901C35.7629 7.83097 36 8.40326 36 9V13.5C36 14.0967 35.7629 14.669 35.341 15.091C34.919 15.5129 34.3467 15.75 33.75 15.75V32.625C33.75 33.5201 33.3944 34.3786 32.7615 35.0115C32.1286 35.6444 31.2701 36 30.375 36H5.625C4.72989 36 3.87145 35.6444 3.23851 35.0115C2.60558 34.3786 2.25 33.5201 2.25 32.625V15.75C1.65326 15.75 1.08097 15.5129 0.65901 15.091C0.237053 14.669 0 14.0967 0 13.5V9C0 8.40326 0.237053 7.83097 0.65901 7.40901C1.08097 6.98705 1.65326 6.75 2.25 6.75H6.8355C6.77607 6.38253 6.74747 6.01074 6.75 5.6385V5.625ZM9.153 6.75H15.75V5.625C15.75 5.18179 15.6627 4.74292 15.4931 4.33344C15.3235 3.92397 15.0749 3.55191 14.7615 3.23851C14.4481 2.92512 14.076 2.67652 13.6666 2.50691C13.2571 2.3373 12.8182 2.25 12.375 2.25C11.9318 2.25 11.4929 2.3373 11.0834 2.50691C10.674 2.67652 10.3019 2.92512 9.98851 3.23851C9.67512 3.55191 9.42652 3.92397 9.25691 4.33344C9.0873 4.74292 9 5.18179 9 5.625C9 5.81625 9.0045 6.2415 9.10125 6.5925C9.11477 6.64615 9.13206 6.69878 9.153 6.75ZM20.25 6.75H26.847C26.8677 6.69869 26.885 6.64608 26.8988 6.5925C26.9955 6.2415 27 5.81625 27 5.625C27 4.72989 26.6444 3.87145 26.0115 3.23851C25.3786 2.60558 24.5201 2.25 23.625 2.25C22.7299 2.25 21.8714 2.60558 21.2385 3.23851C20.6056 3.87145 20.25 4.72989 20.25 5.625V6.75ZM2.25 9V13.5H15.75V9H2.25ZM20.25 9V13.5H33.75V9H20.25ZM31.5 15.75H20.25V33.75H30.375C30.6734 33.75 30.9595 33.6315 31.1705 33.4205C31.3815 33.2095 31.5 32.9234 31.5 32.625V15.75ZM15.75 33.75V15.75H4.5V32.625C4.5 32.9234 4.61853 33.2095 4.8295 33.4205C5.04048 33.6315 5.32663 33.75 5.625 33.75H15.75Z" fill="#212529"/>
</svg>
