<svg width="16" height="17" viewBox="0 0 16 17" fill="none" xmlns="http://www.w3.org/2000/svg">
<path d="M11.6584 3.36691H14.6112C14.9426 3.36691 15.2112 3.63554 15.2112 3.96691V15.399C15.2112 15.7304 14.9426 15.999 14.6112 15.999H1.60005C1.26868 15.999 1.00005 15.7304 1.00005 15.399V3.96691C1.00005 3.63554 1.26868 3.36691 1.60005 3.36691H4.55284" stroke="black" stroke-width="1.5" stroke-linecap="round" stroke-linejoin="round"/>
<path d="M11.5421 4.0661L11.6419 3.46742C11.6528 3.40211 11.6528 3.33545 11.6419 3.27014L11.5421 2.67146C11.3814 1.70709 10.547 1.00026 9.56932 1.00026H6.64177C5.66409 1.00026 4.82971 1.70709 4.66898 2.67146L4.5692 3.27014C4.55832 3.33545 4.55832 3.40211 4.5692 3.46742L4.66898 4.0661C4.82971 5.03048 5.66409 5.7373 6.64177 5.7373H9.56932C10.547 5.7373 11.3814 5.03048 11.5421 4.0661Z" stroke="black" stroke-width="1.5" stroke-linecap="round" stroke-linejoin="round"/>
<path d="M4.15808 12.8418L12.0532 12.8418" stroke="black" stroke-width="1.5" stroke-linecap="round" stroke-linejoin="round"/>
</svg>
