<svg width="16" height="16" viewBox="0 0 16 16" fill="none" xmlns="http://www.w3.org/2000/svg">
<path d="M15 1.6V14.4C15 14.7314 14.7314 15 14.4 15H1.6C1.26863 15 1 14.7314 1 14.4V1.6C1 1.26863 1.26863 1 1.6 1H14.4C14.7314 1 15 1.26863 15 1.6Z" stroke="black" stroke-width="1.5" stroke-linecap="round" stroke-linejoin="round"/>
<path d="M1 11.1116L6.44444 8.77832L15 12.6672" stroke="black" stroke-width="1.5" stroke-linecap="round" stroke-linejoin="round"/>
<path d="M11.1112 6.44802C10.2521 6.44802 9.55564 5.75158 9.55564 4.89247C9.55564 4.03336 10.2521 3.33691 11.1112 3.33691C11.9703 3.33691 12.6667 4.03336 12.6667 4.89247C12.6667 5.75158 11.9703 6.44802 11.1112 6.44802Z" stroke="black" stroke-width="1.5" stroke-linecap="round" stroke-linejoin="round"/>
</svg>
