<svg width="16" height="17" viewBox="0 0 16 17" fill="none" xmlns="http://www.w3.org/2000/svg">
<path d="M1 4.15625L8.10526 7.31414M15.2105 4.15625L8.10526 7.31414M8.10526 15.9984V7.31414" stroke="black" stroke-width="1.5" stroke-linejoin="round"/>
<path d="M1 12.4522V4.54782C1 4.31071 1.13964 4.09583 1.35632 3.99953L7.86158 1.1083C8.01672 1.03935 8.19381 1.03935 8.34895 1.1083L14.8542 3.99953C15.0709 4.09583 15.2105 4.31071 15.2105 4.54782V12.4522C15.2105 12.6893 15.0709 12.9042 14.8542 13.0005L8.34895 15.8917C8.19381 15.9606 8.01672 15.9606 7.86158 15.8917L1.35632 13.0005C1.13964 12.9042 1 12.6893 1 12.4522Z" stroke="black" stroke-width="1.5" stroke-linecap="round" stroke-linejoin="round"/>
<path d="M4.55273 2.57812L11.3017 5.57766C11.5184 5.67396 11.658 5.88883 11.658 6.12594V8.89392" stroke="black" stroke-width="1.5" stroke-linecap="round" stroke-linejoin="round"/>
</svg>
