<svg width="36" height="36" viewBox="0 0 36 36" fill="none" xmlns="http://www.w3.org/2000/svg">
<path d="M9 12.9374V10.9124H11.25V12.9374H9Z" fill="#212529"/>
<path d="M24.75 12.9374V10.9124H27V12.9374H24.75Z" fill="#212529"/>
<path d="M9 16.9874V14.9624H11.25V16.9874H9Z" fill="#212529"/>
<path d="M24.75 16.9874V14.9624H27V16.9874H24.75Z" fill="#212529"/>
<path d="M9 21.0374V19.0124H11.25V21.0374H9Z" fill="#212529"/>
<path d="M24.75 21.0374V19.0124H27V21.0374H24.75Z" fill="#212529"/>
<path d="M9 25.0874V23.0624H11.25V25.0874H9Z" fill="#212529"/>
<path d="M24.75 25.0874V23.0624H27V25.0874H24.75Z" fill="#212529"/>
<path fill-rule="evenodd" clip-rule="evenodd" d="M0.988515 7.73851C1.62145 7.10558 2.47989 6.75 3.375 6.75H32.625C33.5201 6.75 34.3786 7.10558 35.0115 7.73851C35.6444 8.37145 36 9.22989 36 10.125V13.5C36 13.7984 35.8815 14.0845 35.6705 14.2955C35.4595 14.5065 35.1734 14.625 34.875 14.625C33.9799 14.625 33.1214 14.9806 32.4885 15.6135C31.8556 16.2464 31.5 17.1049 31.5 18C31.5 18.8951 31.8556 19.7536 32.4885 20.3865C33.1214 21.0194 33.9799 21.375 34.875 21.375C35.1734 21.375 35.4595 21.4935 35.6705 21.7045C35.8815 21.9155 36 22.2016 36 22.5V25.875C36 26.7701 35.6444 27.6286 35.0115 28.2615C34.3786 28.8944 33.5201 29.25 32.625 29.25H3.375C2.47989 29.25 1.62145 28.8944 0.988515 28.2615C0.355579 27.6286 0 26.7701 0 25.875V22.5C0 22.2016 0.118526 21.9155 0.329505 21.7045C0.540483 21.4935 0.826631 21.375 1.125 21.375C2.02011 21.375 2.87855 21.0194 3.51149 20.3865C4.14442 19.7536 4.5 18.8951 4.5 18C4.5 17.1049 4.14442 16.2464 3.51149 15.6135C2.87855 14.9806 2.02011 14.625 1.125 14.625C0.826631 14.625 0.540483 14.5065 0.329505 14.2955C0.118526 14.0845 0 13.7984 0 13.5V10.125C0 9.22989 0.355579 8.37145 0.988515 7.73851ZM2.5795 9.3295C2.36853 9.54048 2.25 9.82663 2.25 10.125V12.4875C3.52157 12.7457 4.66478 13.4356 5.48592 14.4402C6.30707 15.4448 6.75564 16.7025 6.75564 18C6.75564 19.2975 6.30707 20.5552 5.48592 21.5598C4.66478 22.5644 3.52157 23.2543 2.25 23.5125V25.875C2.25 26.1734 2.36853 26.4595 2.5795 26.6705C2.79048 26.8815 3.07663 27 3.375 27H32.625C32.9234 27 33.2095 26.8815 33.4205 26.6705C33.6315 26.4595 33.75 26.1734 33.75 25.875V23.5125C32.4784 23.2543 31.3352 22.5644 30.5141 21.5598C29.6929 20.5552 29.2444 19.2975 29.2444 18C29.2444 16.7025 29.6929 15.4448 30.5141 14.4402C31.3352 13.4356 32.4784 12.7457 33.75 12.4875V10.125C33.75 9.82663 33.6315 9.54048 33.4205 9.3295C33.2095 9.11853 32.9234 9 32.625 9H3.375C3.07663 9 2.79048 9.11853 2.5795 9.3295Z" fill="#212529"/>
</svg>
